<?xml version="1.0" encoding="UTF-8" standalone="no"?><!DOCTYPE svg PUBLIC "-//W3C//DTD SVG 1.1//EN" "http://www.w3.org/Graphics/SVG/1.1/DTD/svg11.dtd"><svg width="100%" height="100%" viewBox="0 0 9803 9280" version="1.1" xmlns="http://www.w3.org/2000/svg" xmlns:xlink="http://www.w3.org/1999/xlink" xml:space="preserve" xmlns:serif="http://www.serif.com/" style="fill-rule:evenodd;clip-rule:evenodd;stroke-linejoin:round;stroke-miterlimit:2;"><g><g><rect x="990.186" y="8035.56" width="1158.66" height="1218.82" style="fill:url(#_Linear1);"/><rect x="400.15" y="7447.73" width="604.223" height="603.159" style="fill:url(#_Linear2);"/><rect x="0" y="6119.59" width="591.48" height="590.802" style="fill:url(#_Linear3);"/><path d="M997.067,3379.75l5.965,3460.81l539.376,-0l-0,614.501l610.237,4.339l-1.204,-2600.32l1659.21,1680.11l785.928,-785.928l-2306.78,-2375.85l-1292.73,2.342Z" style="fill:url(#_Linear4);"/><rect x="994.866" y="2148.73" width="1148.69" height="822.218" style="fill:url(#_Linear5);"/><path d="M3795.11,1326.94l-4.867,3003.43l-1135.7,-1166.15l2.687,-1837.28l1137.88,0Z" style="fill:url(#_Linear6);"/><path d="M4331.55,1781.39l1114.68,4.876l13.766,3078.32l-573.178,591.604l-566.403,-580.471l11.133,-3094.33Z" style="fill:url(#_Linear7);"/><path d="M5979.55,0l1133.16,0l-3.516,3178.93l-1126.29,1159.99l-3.35,-4338.92Z" style="fill:url(#_Linear8);"/><path d="M8789.46,9279.14l-1155.64,-0l-17.841,-3821.4l1147.9,-1182.85l25.575,5004.24Z" style="fill:url(#_Linear9);"/><path d="M2976.62,6863.78l712.593,-1.656c50.36,-0.117 91.285,40.6 91.426,90.959l1.877,669.933c0.129,46.008 37.219,83.364 83.225,83.822l516.863,5.143c46.481,0.462 83.801,38.49 83.391,84.971l-4.221,477.873c-0.212,23.929 9.162,46.948 26.031,63.923c16.868,16.974 39.828,26.492 63.759,26.431l681.24,-1.751c39.114,-0.101 70.826,-31.728 71.031,-70.842l2.704,-516.129c0.193,-36.747 29.922,-66.495 66.668,-66.711l536.891,-3.159c20.214,-0.119 39.552,-8.268 53.755,-22.653c14.203,-14.384 22.105,-33.824 21.967,-54.038l-4.85,-709.816c-0.133,-19.353 7.479,-37.956 21.141,-51.665c13.661,-13.709 32.237,-21.386 51.59,-21.322l740.565,2.472c36.101,0.12 65.314,29.399 65.353,65.5l0.829,768.258c0.016,15.06 -5.977,29.504 -16.651,40.128c-10.673,10.625 -25.145,16.551 -40.205,16.466l-727.26,-4.138c-33.125,-0.189 -60.175,26.425 -60.525,59.549l-5.578,528.089c-0.471,44.605 -36.755,80.521 -81.362,80.537l-529.869,0.189c-19.56,0.007 -38.312,7.8 -52.115,21.657c-13.803,13.858 -21.522,32.641 -21.452,52.2l2.523,704.239c0.079,22.069 -8.699,43.248 -24.367,58.79c-15.669,15.542 -36.918,24.149 -58.986,23.892l-725.759,-8.464c-47.447,-0.553 -85.64,-39.136 -85.712,-86.586l-1.046,-686.037c-0.035,-23.069 -9.241,-45.177 -25.589,-61.454c-16.348,-16.276 -38.497,-25.384 -61.566,-25.318l-504.898,1.454c-22.096,0.063 -43.309,-8.668 -58.957,-24.269c-15.649,-15.6 -24.446,-36.787 -24.45,-58.883l-0.1,-503.021c-0.008,-40.087 -32.157,-72.763 -72.239,-73.421l-716.768,-11.777c-40.427,-0.664 -72.847,-33.632 -72.835,-74.064l0.214,-707.412c0.014,-45.156 36.568,-81.784 81.724,-81.889Zm3458.21,169.625c-122.264,-0 -221.526,119.511 -221.526,266.715c-0,147.204 99.262,266.716 221.526,266.716c122.264,-0 221.527,-119.512 221.527,-266.716c-0,-147.204 -99.263,-266.715 -221.527,-266.715Zm-1.158,106.017c48.89,0 88.582,71.118 88.582,158.714c0,87.597 -39.692,158.714 -88.582,158.714c-48.89,0 -88.583,-71.117 -88.583,-158.714c0,-87.596 39.693,-158.714 88.583,-158.714Zm-3126.46,23.338l0,384.194l121.156,0l0,-493.668l-222.515,-0l0,109.474l101.359,0Z" style="fill:url(#_Linear10);"/><path d="M2575.95,6201.13l-101.359,-0l-0,-109.474l222.515,-0l-0,493.668l-121.156,0l0,-384.194Z" style="fill:url(#_Linear11);"/><path d="M7108.98,6201.13l-101.359,-0l0,-109.474l222.515,-0l0,493.668l-121.156,0l0,-384.194Z" style="fill:url(#_Linear12);"/><path d="M6364.93,8316.61l-101.359,-0l-0,-109.474l222.515,-0l-0,493.668l-121.156,-0l0,-384.194Z" style="fill:url(#_Linear13);"/><path d="M3364.38,8193.1c122.264,-0 221.527,119.511 221.527,266.715c-0,147.205 -99.263,266.716 -221.527,266.716c-122.264,-0 -221.526,-119.511 -221.526,-266.716c-0,-147.204 99.262,-266.715 221.526,-266.715Zm-1.158,106.018c-48.89,-0 -88.583,71.117 -88.583,158.714c0,87.596 39.693,158.714 88.583,158.714c48.89,-0 88.582,-71.118 88.582,-158.714c0,-87.597 -39.692,-158.714 -88.582,-158.714Z" style="fill:url(#_Linear14);"/><path d="M8899.02,3565.31l-4001.59,4074.27l-806.891,-792.496l4008.4,-4081.21l36.149,35.504l-519.11,-519.109l2186.4,-406.395l-406.395,2186.4l-496.963,-496.963Z" style="fill:url(#_Linear15);"/></g></g><defs><linearGradient id="_Linear1" x1="0" y1="0" x2="1" y2="0" gradientUnits="userSpaceOnUse" gradientTransform="matrix(9778.46,-9279.14,9279.14,9778.46,38.5542,9279.14)"><stop offset="0" style="stop-color:#069fc1;stop-opacity:1"/><stop offset="1" style="stop-color:#4be6a2;stop-opacity:1"/></linearGradient><linearGradient id="_Linear2" x1="0" y1="0" x2="1" y2="0" gradientUnits="userSpaceOnUse" gradientTransform="matrix(9778.46,-9279.14,9279.14,9778.46,38.5542,9279.14)"><stop offset="0" style="stop-color:#069fc1;stop-opacity:1"/><stop offset="1" style="stop-color:#4be6a2;stop-opacity:1"/></linearGradient><linearGradient id="_Linear3" x1="0" y1="0" x2="1" y2="0" gradientUnits="userSpaceOnUse" gradientTransform="matrix(9778.46,-9279.14,9279.14,9778.46,38.5542,9279.14)"><stop offset="0" style="stop-color:#069fc1;stop-opacity:1"/><stop offset="1" style="stop-color:#4be6a2;stop-opacity:1"/></linearGradient><linearGradient id="_Linear4" x1="0" y1="0" x2="1" y2="0" gradientUnits="userSpaceOnUse" gradientTransform="matrix(9778.46,-9279.14,9279.14,9778.46,38.5542,9279.14)"><stop offset="0" style="stop-color:#069fc1;stop-opacity:1"/><stop offset="1" style="stop-color:#4be6a2;stop-opacity:1"/></linearGradient><linearGradient id="_Linear5" x1="0" y1="0" x2="1" y2="0" gradientUnits="userSpaceOnUse" gradientTransform="matrix(9778.46,-9279.14,9279.14,9778.46,38.5542,9279.14)"><stop offset="0" style="stop-color:#069fc1;stop-opacity:1"/><stop offset="1" style="stop-color:#4be6a2;stop-opacity:1"/></linearGradient><linearGradient id="_Linear6" x1="0" y1="0" x2="1" y2="0" gradientUnits="userSpaceOnUse" gradientTransform="matrix(9778.46,-9279.14,9279.14,9778.46,38.5542,9279.14)"><stop offset="0" style="stop-color:#069fc1;stop-opacity:1"/><stop offset="1" style="stop-color:#4be6a2;stop-opacity:1"/></linearGradient><linearGradient id="_Linear7" x1="0" y1="0" x2="1" y2="0" gradientUnits="userSpaceOnUse" gradientTransform="matrix(9778.46,-9279.14,9279.14,9778.46,38.5542,9279.14)"><stop offset="0" style="stop-color:#069fc1;stop-opacity:1"/><stop offset="1" style="stop-color:#4be6a2;stop-opacity:1"/></linearGradient><linearGradient id="_Linear8" x1="0" y1="0" x2="1" y2="0" gradientUnits="userSpaceOnUse" gradientTransform="matrix(9778.46,-9279.14,9279.14,9778.46,38.5542,9279.14)"><stop offset="0" style="stop-color:#069fc1;stop-opacity:1"/><stop offset="1" style="stop-color:#4be6a2;stop-opacity:1"/></linearGradient><linearGradient id="_Linear9" x1="0" y1="0" x2="1" y2="0" gradientUnits="userSpaceOnUse" gradientTransform="matrix(9778.46,-9279.14,9279.14,9778.46,38.5542,9279.14)"><stop offset="0" style="stop-color:#069fc1;stop-opacity:1"/><stop offset="1" style="stop-color:#4be6a2;stop-opacity:1"/></linearGradient><linearGradient id="_Linear10" x1="0" y1="0" x2="1" y2="0" gradientUnits="userSpaceOnUse" gradientTransform="matrix(9778.46,-9279.14,9279.14,9778.46,38.5542,9279.14)"><stop offset="0" style="stop-color:#069fc1;stop-opacity:1"/><stop offset="1" style="stop-color:#4be6a2;stop-opacity:1"/></linearGradient><linearGradient id="_Linear11" x1="0" y1="0" x2="1" y2="0" gradientUnits="userSpaceOnUse" gradientTransform="matrix(9778.46,-9279.14,9279.14,9778.46,38.5542,9279.14)"><stop offset="0" style="stop-color:#069fc1;stop-opacity:1"/><stop offset="1" style="stop-color:#4be6a2;stop-opacity:1"/></linearGradient><linearGradient id="_Linear12" x1="0" y1="0" x2="1" y2="0" gradientUnits="userSpaceOnUse" gradientTransform="matrix(9778.46,-9279.14,9279.14,9778.46,38.5542,9279.14)"><stop offset="0" style="stop-color:#069fc1;stop-opacity:1"/><stop offset="1" style="stop-color:#4be6a2;stop-opacity:1"/></linearGradient><linearGradient id="_Linear13" x1="0" y1="0" x2="1" y2="0" gradientUnits="userSpaceOnUse" gradientTransform="matrix(9778.46,-9279.14,9279.14,9778.46,38.5542,9279.14)"><stop offset="0" style="stop-color:#069fc1;stop-opacity:1"/><stop offset="1" style="stop-color:#4be6a2;stop-opacity:1"/></linearGradient><linearGradient id="_Linear14" x1="0" y1="0" x2="1" y2="0" gradientUnits="userSpaceOnUse" gradientTransform="matrix(9778.46,-9279.14,9279.14,9778.46,38.5542,9279.14)"><stop offset="0" style="stop-color:#069fc1;stop-opacity:1"/><stop offset="1" style="stop-color:#4be6a2;stop-opacity:1"/></linearGradient><linearGradient id="_Linear15" x1="0" y1="0" x2="1" y2="0" gradientUnits="userSpaceOnUse" gradientTransform="matrix(9778.46,-9279.14,9279.14,9778.46,38.5542,9279.14)"><stop offset="0" style="stop-color:#069fc1;stop-opacity:1"/><stop offset="1" style="stop-color:#4be6a2;stop-opacity:1"/></linearGradient></defs></svg>