<?xml version="1.0" encoding="UTF-8" standalone="no"?><!DOCTYPE svg PUBLIC "-//W3C//DTD SVG 1.1//EN" "http://www.w3.org/Graphics/SVG/1.1/DTD/svg11.dtd"><svg width="100%" height="100%" viewBox="0 0 8235 9803" version="1.1" xmlns="http://www.w3.org/2000/svg" xmlns:xlink="http://www.w3.org/1999/xlink" xml:space="preserve" xmlns:serif="http://www.serif.com/" style="fill-rule:evenodd;clip-rule:evenodd;stroke-linejoin:round;stroke-miterlimit:2;"><g><g><rect x="831.769" y="6749.98" width="973.288" height="1023.82" style="fill:url(#_Linear1);"/><rect x="336.131" y="6256.19" width="507.556" height="506.662" style="fill:url(#_Linear2);"/><rect x="0" y="5140.53" width="496.851" height="496.282" style="fill:url(#_Linear3);"/><path d="M837.55,2839.04l5.011,2907.13l453.082,-0l0,516.189l512.607,3.645l-1.01,-2184.3l1393.76,1411.31l660.19,-660.19l-1937.73,-1995.75l-1085.91,1.968Z" style="fill:url(#_Linear4);"/><rect x="835.7" y="1804.96" width="964.917" height="690.674" style="fill:url(#_Linear5);"/><path d="M3187.94,1114.65l-4.089,2522.92l-954.003,-979.579l2.257,-1543.34l955.835,-0Z" style="fill:url(#_Linear6);"/><path d="M3638.56,1496.39l936.348,4.096l11.563,2585.83l-481.477,496.955l-475.786,-487.603l9.352,-2599.28Z" style="fill:url(#_Linear7);"/><path d="M5022.9,0l951.867,0l-2.954,2670.34l-946.098,974.409l-2.815,-3644.75Z" style="fill:url(#_Linear8);"/><path d="M7383.26,7794.6l-970.749,0l-14.987,-3210.02l964.253,-993.608l21.483,4203.63Z" style="fill:url(#_Linear9);"/><path d="M2500.4,5765.66l598.588,-1.391c42.302,-0.099 76.681,34.104 76.799,76.406l1.576,562.753c0.108,38.647 31.265,70.027 69.911,70.412l434.172,4.32c39.044,0.388 70.394,32.332 70.049,71.377l-3.546,401.419c-0.177,20.101 7.697,39.438 21.867,53.697c14.169,14.258 33.456,22.253 53.558,22.202l572.251,-1.471c32.856,-0.084 59.495,-26.652 59.667,-59.508l2.272,-433.556c0.161,-30.867 25.134,-55.856 56.001,-56.038l450.996,-2.653c16.98,-0.1 33.224,-6.946 45.155,-19.029c11.93,-12.083 18.568,-28.413 18.452,-45.393l-4.074,-596.255c-0.111,-16.257 6.283,-31.883 17.759,-43.399c11.475,-11.516 27.079,-17.965 43.337,-17.91l622.084,2.076c30.325,0.101 54.865,24.696 54.897,55.021l0.696,645.347c0.014,12.65 -5.02,24.783 -13.986,33.708c-8.966,8.925 -21.123,13.903 -33.773,13.831l-610.908,-3.476c-27.826,-0.158 -50.548,22.198 -50.842,50.022l-4.686,443.602c-0.395,37.469 -30.875,67.639 -68.345,67.652l-445.097,0.159c-16.43,0.006 -32.182,6.552 -43.777,18.193c-11.595,11.641 -18.079,27.418 -18.021,43.848l2.12,591.57c0.067,18.539 -7.307,36.329 -20.469,49.385c-13.162,13.056 -31.011,20.285 -49.548,20.069l-609.648,-7.11c-39.856,-0.464 -71.939,-32.874 -71.999,-72.733l-0.879,-576.28c-0.029,-19.378 -7.763,-37.95 -21.495,-51.622c-13.733,-13.672 -32.338,-21.324 -51.716,-21.268l-424.121,1.221c-18.561,0.054 -36.38,-7.281 -49.525,-20.386c-13.145,-13.104 -20.535,-30.901 -20.539,-49.462l-0.083,-422.544c-0.006,-33.674 -27.013,-61.122 -60.682,-61.676l-602.095,-9.892c-33.958,-0.558 -61.192,-28.251 -61.182,-62.215l0.18,-594.236c0.011,-37.931 30.717,-68.699 68.649,-68.787Zm2904.95,142.487c-102.704,-0 -186.086,100.391 -186.086,224.044c0,123.654 83.382,224.045 186.086,224.045c102.703,-0 186.085,-100.391 186.085,-224.045c-0,-123.653 -83.382,-224.044 -186.085,-224.044Zm-0.973,89.056c41.068,0 74.41,59.74 74.41,133.322c0,73.582 -33.342,133.322 -74.41,133.322c-41.069,-0 -74.411,-59.74 -74.411,-133.322c-0,-73.582 33.342,-133.322 74.411,-133.322Zm-2626.27,19.604l0,322.728l101.773,0l-0,-414.688l-186.916,0l0,91.96l85.143,0Z" style="fill:url(#_Linear10);"/><path d="M2163.83,5209.03l-85.144,-0l0,-91.96l186.916,-0l-0,414.688l-101.772,0l-0,-322.728Z" style="fill:url(#_Linear11);"/><path d="M5971.64,5209.03l-85.143,-0l0,-91.96l186.916,-0l-0,414.688l-101.773,0l0,-322.728Z" style="fill:url(#_Linear12);"/><path d="M5346.63,6986.07l-85.143,0l-0,-91.96l186.915,0l0,414.688l-101.772,0l-0,-322.728Z" style="fill:url(#_Linear13);"/><path d="M2826.12,6882.31c102.703,-0 186.085,100.391 186.085,224.044c0,123.654 -83.382,224.045 -186.085,224.045c-102.703,-0 -186.085,-100.391 -186.085,-224.045c-0,-123.653 83.382,-224.044 186.085,-224.044Zm-0.973,89.056c-41.069,-0 -74.411,59.739 -74.411,133.322c0,73.582 33.342,133.322 74.411,133.322c41.068,-0 74.41,-59.74 74.41,-133.322c0,-73.583 -33.342,-133.322 -74.41,-133.322Z" style="fill:url(#_Linear14);"/><path d="M7475.3,2994.91l-3361.39,3422.44l-677.799,-665.707l3367.11,-3428.27l30.365,29.824l-436.059,-436.059l1836.6,-341.377l-341.377,1836.6l-417.455,-417.455Z" style="fill:url(#_Linear15);"/></g><g transform="matrix(2265.65,0,0,2265.65,7487.11,9762.55)"></g><text x="690.166px" y="9762.55px" style="font-family:'Helvetica-Bold', 'Helvetica';font-weight:700;font-size:2265.65px;fill:#474747;">metbit</text></g><defs><linearGradient id="_Linear1" x1="0" y1="0" x2="1" y2="0" gradientUnits="userSpaceOnUse" gradientTransform="matrix(8214.04,-7794.6,7794.6,8214.04,32.3861,7794.6)"><stop offset="0" style="stop-color:#069fc1;stop-opacity:1"/><stop offset="1" style="stop-color:#4be6a2;stop-opacity:1"/></linearGradient><linearGradient id="_Linear2" x1="0" y1="0" x2="1" y2="0" gradientUnits="userSpaceOnUse" gradientTransform="matrix(8214.04,-7794.6,7794.6,8214.04,32.3861,7794.6)"><stop offset="0" style="stop-color:#069fc1;stop-opacity:1"/><stop offset="1" style="stop-color:#4be6a2;stop-opacity:1"/></linearGradient><linearGradient id="_Linear3" x1="0" y1="0" x2="1" y2="0" gradientUnits="userSpaceOnUse" gradientTransform="matrix(8214.04,-7794.6,7794.6,8214.04,32.3861,7794.6)"><stop offset="0" style="stop-color:#069fc1;stop-opacity:1"/><stop offset="1" style="stop-color:#4be6a2;stop-opacity:1"/></linearGradient><linearGradient id="_Linear4" x1="0" y1="0" x2="1" y2="0" gradientUnits="userSpaceOnUse" gradientTransform="matrix(8214.04,-7794.6,7794.6,8214.04,32.3861,7794.6)"><stop offset="0" style="stop-color:#069fc1;stop-opacity:1"/><stop offset="1" style="stop-color:#4be6a2;stop-opacity:1"/></linearGradient><linearGradient id="_Linear5" x1="0" y1="0" x2="1" y2="0" gradientUnits="userSpaceOnUse" gradientTransform="matrix(8214.04,-7794.6,7794.6,8214.04,32.3861,7794.6)"><stop offset="0" style="stop-color:#069fc1;stop-opacity:1"/><stop offset="1" style="stop-color:#4be6a2;stop-opacity:1"/></linearGradient><linearGradient id="_Linear6" x1="0" y1="0" x2="1" y2="0" gradientUnits="userSpaceOnUse" gradientTransform="matrix(8214.04,-7794.6,7794.6,8214.04,32.3861,7794.6)"><stop offset="0" style="stop-color:#069fc1;stop-opacity:1"/><stop offset="1" style="stop-color:#4be6a2;stop-opacity:1"/></linearGradient><linearGradient id="_Linear7" x1="0" y1="0" x2="1" y2="0" gradientUnits="userSpaceOnUse" gradientTransform="matrix(8214.04,-7794.6,7794.6,8214.04,32.3861,7794.6)"><stop offset="0" style="stop-color:#069fc1;stop-opacity:1"/><stop offset="1" style="stop-color:#4be6a2;stop-opacity:1"/></linearGradient><linearGradient id="_Linear8" x1="0" y1="0" x2="1" y2="0" gradientUnits="userSpaceOnUse" gradientTransform="matrix(8214.04,-7794.6,7794.6,8214.04,32.3861,7794.6)"><stop offset="0" style="stop-color:#069fc1;stop-opacity:1"/><stop offset="1" style="stop-color:#4be6a2;stop-opacity:1"/></linearGradient><linearGradient id="_Linear9" x1="0" y1="0" x2="1" y2="0" gradientUnits="userSpaceOnUse" gradientTransform="matrix(8214.04,-7794.6,7794.6,8214.04,32.3861,7794.6)"><stop offset="0" style="stop-color:#069fc1;stop-opacity:1"/><stop offset="1" style="stop-color:#4be6a2;stop-opacity:1"/></linearGradient><linearGradient id="_Linear10" x1="0" y1="0" x2="1" y2="0" gradientUnits="userSpaceOnUse" gradientTransform="matrix(8214.04,-7794.6,7794.6,8214.04,32.3861,7794.6)"><stop offset="0" style="stop-color:#069fc1;stop-opacity:1"/><stop offset="1" style="stop-color:#4be6a2;stop-opacity:1"/></linearGradient><linearGradient id="_Linear11" x1="0" y1="0" x2="1" y2="0" gradientUnits="userSpaceOnUse" gradientTransform="matrix(8214.04,-7794.6,7794.6,8214.04,32.3861,7794.6)"><stop offset="0" style="stop-color:#069fc1;stop-opacity:1"/><stop offset="1" style="stop-color:#4be6a2;stop-opacity:1"/></linearGradient><linearGradient id="_Linear12" x1="0" y1="0" x2="1" y2="0" gradientUnits="userSpaceOnUse" gradientTransform="matrix(8214.04,-7794.6,7794.6,8214.04,32.3861,7794.6)"><stop offset="0" style="stop-color:#069fc1;stop-opacity:1"/><stop offset="1" style="stop-color:#4be6a2;stop-opacity:1"/></linearGradient><linearGradient id="_Linear13" x1="0" y1="0" x2="1" y2="0" gradientUnits="userSpaceOnUse" gradientTransform="matrix(8214.04,-7794.6,7794.6,8214.04,32.3861,7794.6)"><stop offset="0" style="stop-color:#069fc1;stop-opacity:1"/><stop offset="1" style="stop-color:#4be6a2;stop-opacity:1"/></linearGradient><linearGradient id="_Linear14" x1="0" y1="0" x2="1" y2="0" gradientUnits="userSpaceOnUse" gradientTransform="matrix(8214.04,-7794.6,7794.6,8214.04,32.3861,7794.6)"><stop offset="0" style="stop-color:#069fc1;stop-opacity:1"/><stop offset="1" style="stop-color:#4be6a2;stop-opacity:1"/></linearGradient><linearGradient id="_Linear15" x1="0" y1="0" x2="1" y2="0" gradientUnits="userSpaceOnUse" gradientTransform="matrix(8214.04,-7794.6,7794.6,8214.04,32.3861,7794.6)"><stop offset="0" style="stop-color:#069fc1;stop-opacity:1"/><stop offset="1" style="stop-color:#4be6a2;stop-opacity:1"/></linearGradient></defs></svg>