<?xml version="1.0" encoding="UTF-8" standalone="no"?><!DOCTYPE svg PUBLIC "-//W3C//DTD SVG 1.1//EN" "http://www.w3.org/Graphics/SVG/1.1/DTD/svg11.dtd"><svg width="100%" height="100%" viewBox="0 0 8260 9833" version="1.1" xmlns="http://www.w3.org/2000/svg" xmlns:xlink="http://www.w3.org/1999/xlink" xml:space="preserve" xmlns:serif="http://www.serif.com/" style="fill-rule:evenodd;clip-rule:evenodd;stroke-linejoin:round;stroke-miterlimit:2;"><g><g><rect x="834.329" y="6770.76" width="976.284" height="1026.97" style="fill:url(#_Linear1);"/><rect x="337.166" y="6275.45" width="509.118" height="508.221" style="fill:url(#_Linear2);"/><rect x="0" y="5156.36" width="498.381" height="497.809" style="fill:url(#_Linear3);"/><path d="M840.128,2847.78l5.026,2916.08l454.477,0l0,517.778l514.185,3.656l-1.014,-2191.03l1398.05,1415.65l662.222,-662.222l-1943.69,-2001.89l-1089.25,1.974Z" style="fill:url(#_Linear4);"/><rect x="838.273" y="1810.52" width="967.887" height="692.8" style="fill:url(#_Linear5);"/><path d="M3197.76,1118.08l-4.101,2530.69l-956.94,-982.594l2.264,-1548.09l958.777,0Z" style="fill:url(#_Linear6);"/><path d="M3649.76,1501l939.23,4.109l11.599,2593.79l-482.959,498.484l-477.251,-489.104l9.381,-2607.28Z" style="fill:url(#_Linear7);"/><path d="M5038.37,0l954.796,0l-2.963,2678.56l-949.01,977.407l-2.823,-3655.97Z" style="fill:url(#_Linear8);"/><path d="M7405.99,7818.6l-973.737,-0l-15.033,-3219.91l967.221,-996.666l21.549,4216.57Z" style="fill:url(#_Linear9);"/><path d="M2508.09,5783.41l600.431,-1.395c42.432,-0.099 76.916,34.209 77.035,76.642l1.581,564.485c0.109,38.766 31.361,70.242 70.126,70.628l435.508,4.333c39.165,0.39 70.611,32.432 70.265,71.597l-3.557,402.655c-0.178,20.163 7.721,39.559 21.934,53.862c14.213,14.302 33.559,22.322 53.723,22.27l574.013,-1.475c32.957,-0.085 59.677,-26.734 59.85,-59.691l2.279,-434.89c0.162,-30.963 25.212,-56.029 56.174,-56.211l452.384,-2.662c17.032,-0.1 33.326,-6.966 45.293,-19.087c11.967,-12.12 18.626,-28.5 18.51,-45.532l-4.087,-598.09c-0.112,-16.308 6.302,-31.982 17.813,-43.533c11.511,-11.552 27.163,-18.02 43.471,-17.966l623.999,2.083c30.418,0.101 55.033,24.771 55.066,55.19l0.698,647.333c0.014,12.69 -5.036,24.86 -14.03,33.812c-8.993,8.952 -21.187,13.946 -33.876,13.874l-612.789,-3.487c-27.911,-0.158 -50.703,22.267 -50.998,50.177l-4.7,444.967c-0.397,37.584 -30.97,67.846 -68.556,67.86l-446.467,0.159c-16.481,0.006 -32.281,6.572 -43.912,18.249c-11.631,11.677 -18.135,27.503 -18.075,43.983l2.126,593.391c0.066,18.596 -7.33,36.441 -20.532,49.537c-13.203,13.096 -31.107,20.348 -49.701,20.131l-611.524,-7.132c-39.979,-0.466 -72.161,-32.975 -72.221,-72.957l-0.882,-578.054c-0.029,-19.438 -7.786,-38.066 -21.561,-51.781c-13.775,-13.714 -32.437,-21.389 -51.875,-21.333l-425.426,1.225c-18.618,0.054 -36.493,-7.304 -49.678,-20.449c-13.185,-13.145 -20.598,-30.996 -20.602,-49.615l-0.083,-423.844c-0.007,-33.778 -27.096,-61.311 -60.869,-61.865l-603.948,-9.923c-34.063,-0.56 -61.381,-28.338 -61.371,-62.406l0.181,-596.065c0.011,-38.049 30.812,-68.912 68.86,-69Zm2913.89,142.926c-103.019,-0 -186.658,100.7 -186.658,224.734c0,124.034 83.639,224.734 186.658,224.734c103.02,0 186.658,-100.7 186.658,-224.734c0,-124.034 -83.638,-224.734 -186.658,-224.734Zm-0.976,89.33c41.195,0 74.64,59.924 74.64,133.733c-0,73.808 -33.445,133.732 -74.64,133.732c-41.195,-0 -74.64,-59.924 -74.64,-133.732c0,-73.809 33.445,-133.733 74.64,-133.733Zm-2634.35,19.665l0,323.721l102.086,0l-0,-415.964l-187.491,-0l-0,92.243l85.405,-0Z" style="fill:url(#_Linear10);"/><path d="M2170.49,5225.06l-85.406,-0l0,-92.243l187.491,0l0,415.965l-102.085,-0l-0,-323.722Z" style="fill:url(#_Linear11);"/><path d="M5990.02,5225.06l-85.405,-0l-0,-92.243l187.49,0l0,415.965l-102.085,-0l-0,-323.722Z" style="fill:url(#_Linear12);"/><path d="M5363.09,7007.57l-85.406,-0l0,-92.243l187.491,0l0,415.965l-102.085,-0l-0,-323.722Z" style="fill:url(#_Linear13);"/><path d="M2834.82,6903.5c103.019,0 186.658,100.7 186.658,224.734c-0,124.034 -83.639,224.734 -186.658,224.734c-103.02,0 -186.658,-100.7 -186.658,-224.734c-0,-124.034 83.638,-224.734 186.658,-224.734Zm-0.977,89.331c-41.194,-0 -74.639,59.923 -74.639,133.732c-0,73.809 33.445,133.732 74.639,133.732c41.195,-0 74.64,-59.923 74.64,-133.732c0,-73.809 -33.445,-133.732 -74.64,-133.732Z" style="fill:url(#_Linear14);"/><path d="M7498.31,3004.13l-3371.73,3432.98l-679.885,-667.756l3377.47,-3438.82l30.459,29.916l-437.401,-437.401l1842.25,-342.428l-342.427,1842.26l-418.741,-418.741Z" style="fill:url(#_Linear15);"/></g><g transform="matrix(2272.62,0,0,2272.62,7510.15,9792.6)"></g><text x="692.29px" y="9792.6px" style="font-family:'Helvetica-Bold', 'Helvetica';font-weight:700;font-size:2272.62px;fill:#fff;">metbit</text></g><defs><linearGradient id="_Linear1" x1="0" y1="0" x2="1" y2="0" gradientUnits="userSpaceOnUse" gradientTransform="matrix(8239.32,-7818.59,7818.59,8239.32,32.4858,7818.59)"><stop offset="0" style="stop-color:#069fc1;stop-opacity:1"/><stop offset="1" style="stop-color:#4be6a2;stop-opacity:1"/></linearGradient><linearGradient id="_Linear2" x1="0" y1="0" x2="1" y2="0" gradientUnits="userSpaceOnUse" gradientTransform="matrix(8239.32,-7818.59,7818.59,8239.32,32.4858,7818.59)"><stop offset="0" style="stop-color:#069fc1;stop-opacity:1"/><stop offset="1" style="stop-color:#4be6a2;stop-opacity:1"/></linearGradient><linearGradient id="_Linear3" x1="0" y1="0" x2="1" y2="0" gradientUnits="userSpaceOnUse" gradientTransform="matrix(8239.32,-7818.59,7818.59,8239.32,32.4858,7818.59)"><stop offset="0" style="stop-color:#069fc1;stop-opacity:1"/><stop offset="1" style="stop-color:#4be6a2;stop-opacity:1"/></linearGradient><linearGradient id="_Linear4" x1="0" y1="0" x2="1" y2="0" gradientUnits="userSpaceOnUse" gradientTransform="matrix(8239.32,-7818.59,7818.59,8239.32,32.4858,7818.59)"><stop offset="0" style="stop-color:#069fc1;stop-opacity:1"/><stop offset="1" style="stop-color:#4be6a2;stop-opacity:1"/></linearGradient><linearGradient id="_Linear5" x1="0" y1="0" x2="1" y2="0" gradientUnits="userSpaceOnUse" gradientTransform="matrix(8239.32,-7818.59,7818.59,8239.32,32.4858,7818.59)"><stop offset="0" style="stop-color:#069fc1;stop-opacity:1"/><stop offset="1" style="stop-color:#4be6a2;stop-opacity:1"/></linearGradient><linearGradient id="_Linear6" x1="0" y1="0" x2="1" y2="0" gradientUnits="userSpaceOnUse" gradientTransform="matrix(8239.32,-7818.59,7818.59,8239.32,32.4858,7818.59)"><stop offset="0" style="stop-color:#069fc1;stop-opacity:1"/><stop offset="1" style="stop-color:#4be6a2;stop-opacity:1"/></linearGradient><linearGradient id="_Linear7" x1="0" y1="0" x2="1" y2="0" gradientUnits="userSpaceOnUse" gradientTransform="matrix(8239.32,-7818.59,7818.59,8239.32,32.4858,7818.59)"><stop offset="0" style="stop-color:#069fc1;stop-opacity:1"/><stop offset="1" style="stop-color:#4be6a2;stop-opacity:1"/></linearGradient><linearGradient id="_Linear8" x1="0" y1="0" x2="1" y2="0" gradientUnits="userSpaceOnUse" gradientTransform="matrix(8239.32,-7818.59,7818.59,8239.32,32.4858,7818.59)"><stop offset="0" style="stop-color:#069fc1;stop-opacity:1"/><stop offset="1" style="stop-color:#4be6a2;stop-opacity:1"/></linearGradient><linearGradient id="_Linear9" x1="0" y1="0" x2="1" y2="0" gradientUnits="userSpaceOnUse" gradientTransform="matrix(8239.32,-7818.59,7818.59,8239.32,32.4858,7818.59)"><stop offset="0" style="stop-color:#069fc1;stop-opacity:1"/><stop offset="1" style="stop-color:#4be6a2;stop-opacity:1"/></linearGradient><linearGradient id="_Linear10" x1="0" y1="0" x2="1" y2="0" gradientUnits="userSpaceOnUse" gradientTransform="matrix(8239.32,-7818.59,7818.59,8239.32,32.4858,7818.59)"><stop offset="0" style="stop-color:#069fc1;stop-opacity:1"/><stop offset="1" style="stop-color:#4be6a2;stop-opacity:1"/></linearGradient><linearGradient id="_Linear11" x1="0" y1="0" x2="1" y2="0" gradientUnits="userSpaceOnUse" gradientTransform="matrix(8239.32,-7818.59,7818.59,8239.32,32.4858,7818.59)"><stop offset="0" style="stop-color:#069fc1;stop-opacity:1"/><stop offset="1" style="stop-color:#4be6a2;stop-opacity:1"/></linearGradient><linearGradient id="_Linear12" x1="0" y1="0" x2="1" y2="0" gradientUnits="userSpaceOnUse" gradientTransform="matrix(8239.32,-7818.59,7818.59,8239.32,32.4858,7818.59)"><stop offset="0" style="stop-color:#069fc1;stop-opacity:1"/><stop offset="1" style="stop-color:#4be6a2;stop-opacity:1"/></linearGradient><linearGradient id="_Linear13" x1="0" y1="0" x2="1" y2="0" gradientUnits="userSpaceOnUse" gradientTransform="matrix(8239.32,-7818.59,7818.59,8239.32,32.4858,7818.59)"><stop offset="0" style="stop-color:#069fc1;stop-opacity:1"/><stop offset="1" style="stop-color:#4be6a2;stop-opacity:1"/></linearGradient><linearGradient id="_Linear14" x1="0" y1="0" x2="1" y2="0" gradientUnits="userSpaceOnUse" gradientTransform="matrix(8239.32,-7818.59,7818.59,8239.32,32.4858,7818.59)"><stop offset="0" style="stop-color:#069fc1;stop-opacity:1"/><stop offset="1" style="stop-color:#4be6a2;stop-opacity:1"/></linearGradient><linearGradient id="_Linear15" x1="0" y1="0" x2="1" y2="0" gradientUnits="userSpaceOnUse" gradientTransform="matrix(8239.32,-7818.59,7818.59,8239.32,32.4858,7818.59)"><stop offset="0" style="stop-color:#069fc1;stop-opacity:1"/><stop offset="1" style="stop-color:#4be6a2;stop-opacity:1"/></linearGradient></defs></svg>