<svg class="main-svg" xmlns="http://www.w3.org/2000/svg" xmlns:xlink="http://www.w3.org/1999/xlink" width="1300" height="900" style="" viewBox="0 0 1300 900"><rect x="0" y="0" width="1300" height="900" style="fill: rgb(0, 0, 0); fill-opacity: 0;"/><defs id="defs-6e7c6c"><g class="clips"><clipPath id="clip6e7c6cxyplot" class="plotclip"><rect width="1012" height="720"/></clipPath><clipPath class="axesclip" id="clip6e7c6cx"><rect x="124" y="0" width="1012" height="900"/></clipPath><clipPath class="axesclip" id="clip6e7c6cy"><rect x="0" y="100" width="1300" height="720"/></clipPath><clipPath class="axesclip" id="clip6e7c6cxy"><rect x="124" y="100" width="1012" height="720"/></clipPath></g><g class="gradients"/><g class="patterns"/></defs><g class="bglayer"><rect class="bg" x="124" y="100" width="1012" height="720" style="fill: rgb(0, 0, 0); fill-opacity: 0; stroke-width: 0;"/></g><g class="layer-below"><g class="imagelayer"/><g class="shapelayer"/></g><g class="cartesianlayer"><g class="subplot xy"><g class="layer-subplot"><g class="shapelayer"/><g class="imagelayer"/></g><g class="minor-gridlayer"><g class="x"/><g class="y"/></g><g class="gridlayer"><g class="x"><path class="xgrid crisp" transform="translate(194.7,0)" d="M0,100v720" style="stroke: rgb(255, 255, 255); stroke-opacity: 1; stroke-width: 1px;"/><path class="xgrid crisp" transform="translate(297.63,0)" d="M0,100v720" style="stroke: rgb(255, 255, 255); stroke-opacity: 1; stroke-width: 1px;"/><path class="xgrid crisp" transform="translate(400.56,0)" d="M0,100v720" style="stroke: rgb(255, 255, 255); stroke-opacity: 1; stroke-width: 1px;"/><path class="xgrid crisp" transform="translate(503.5,0)" d="M0,100v720" style="stroke: rgb(255, 255, 255); stroke-opacity: 1; stroke-width: 1px;"/><path class="xgrid crisp" transform="translate(709.36,0)" d="M0,100v720" style="stroke: rgb(255, 255, 255); stroke-opacity: 1; stroke-width: 1px;"/><path class="xgrid crisp" transform="translate(812.29,0)" d="M0,100v720" style="stroke: rgb(255, 255, 255); stroke-opacity: 1; stroke-width: 1px;"/><path class="xgrid crisp" transform="translate(915.22,0)" d="M0,100v720" style="stroke: rgb(255, 255, 255); stroke-opacity: 1; stroke-width: 1px;"/><path class="xgrid crisp" transform="translate(1018.15,0)" d="M0,100v720" style="stroke: rgb(255, 255, 255); stroke-opacity: 1; stroke-width: 1px;"/><path class="xgrid crisp" transform="translate(1121.08,0)" d="M0,100v720" style="stroke: rgb(255, 255, 255); stroke-opacity: 1; stroke-width: 1px;"/></g><g class="y"><path class="ygrid crisp" transform="translate(0,770.76)" d="M124,0h1012" style="stroke: rgb(255, 255, 255); stroke-opacity: 1; stroke-width: 1px;"/><path class="ygrid crisp" transform="translate(0,697.17)" d="M124,0h1012" style="stroke: rgb(255, 255, 255); stroke-opacity: 1; stroke-width: 1px;"/><path class="ygrid crisp" transform="translate(0,623.59)" d="M124,0h1012" style="stroke: rgb(255, 255, 255); stroke-opacity: 1; stroke-width: 1px;"/><path class="ygrid crisp" transform="translate(0,550.01)" d="M124,0h1012" style="stroke: rgb(255, 255, 255); stroke-opacity: 1; stroke-width: 1px;"/><path class="ygrid crisp" transform="translate(0,402.85)" d="M124,0h1012" style="stroke: rgb(255, 255, 255); stroke-opacity: 1; stroke-width: 1px;"/><path class="ygrid crisp" transform="translate(0,329.26)" d="M124,0h1012" style="stroke: rgb(255, 255, 255); stroke-opacity: 1; stroke-width: 1px;"/><path class="ygrid crisp" transform="translate(0,255.68)" d="M124,0h1012" style="stroke: rgb(255, 255, 255); stroke-opacity: 1; stroke-width: 1px;"/><path class="ygrid crisp" transform="translate(0,182.1)" d="M124,0h1012" style="stroke: rgb(255, 255, 255); stroke-opacity: 1; stroke-width: 1px;"/><path class="ygrid crisp" transform="translate(0,108.52)" d="M124,0h1012" style="stroke: rgb(255, 255, 255); stroke-opacity: 1; stroke-width: 1px;"/></g></g><g class="zerolinelayer"><path class="xzl zl crisp" transform="translate(606.4300000000001,0)" d="M0,100v720" style="stroke: rgb(0, 0, 0); stroke-opacity: 1; stroke-width: 2px;"/><path class="yzl zl crisp" transform="translate(0,476.43)" d="M124,0h1012" style="stroke: rgb(0, 0, 0); stroke-opacity: 1; stroke-width: 2px;"/></g><g class="layer-between"><g class="shapelayer"/><g class="imagelayer"/></g><path class="xlines-below"/><path class="ylines-below"/><g class="overlines-below"/><g class="xaxislayer-below"/><g class="yaxislayer-below"/><g class="overaxes-below"/><g class="plot" transform="translate(124,100)" clip-path="url(#clip6e7c6cxyplot)"><g class="scatterlayer mlayer"><g class="trace scatter trace4aa8f4" style="stroke-miterlimit: 2; opacity: 1;"><g class="fills"/><g class="errorbars"/><g class="lines"/><g class="points"><path class="point plotly-customdata" transform="translate(706.41,339.47)" d="M17.5,0A17.5,17.5 0 1,1 0,-17.5A17.5,17.5 0 0,1 17.5,0Z" style="opacity: 0.7; stroke-width: 2px; fill: rgb(99, 110, 250); fill-opacity: 1; stroke: rgb(47, 79, 79); stroke-opacity: 1;"/><path class="point plotly-customdata" transform="translate(721.75,332.44)" d="M17.5,0A17.5,17.5 0 1,1 0,-17.5A17.5,17.5 0 0,1 17.5,0Z" style="opacity: 0.7; stroke-width: 2px; fill: rgb(99, 110, 250); fill-opacity: 1; stroke: rgb(47, 79, 79); stroke-opacity: 1;"/><path class="point plotly-customdata" transform="translate(685.31,370.29)" d="M17.5,0A17.5,17.5 0 1,1 0,-17.5A17.5,17.5 0 0,1 17.5,0Z" style="opacity: 0.7; stroke-width: 2px; fill: rgb(99, 110, 250); fill-opacity: 1; stroke: rgb(47, 79, 79); stroke-opacity: 1;"/><path class="point plotly-customdata" transform="translate(730.09,371.99)" d="M17.5,0A17.5,17.5 0 1,1 0,-17.5A17.5,17.5 0 0,1 17.5,0Z" style="opacity: 0.7; stroke-width: 2px; fill: rgb(99, 110, 250); fill-opacity: 1; stroke: rgb(47, 79, 79); stroke-opacity: 1;"/><path class="point plotly-customdata" transform="translate(939.53,396.63)" d="M17.5,0A17.5,17.5 0 1,1 0,-17.5A17.5,17.5 0 0,1 17.5,0Z" style="opacity: 0.7; stroke-width: 2px; fill: rgb(99, 110, 250); fill-opacity: 1; stroke: rgb(47, 79, 79); stroke-opacity: 1;"/><path class="point plotly-customdata" transform="translate(758.28,451.93)" d="M17.5,0A17.5,17.5 0 1,1 0,-17.5A17.5,17.5 0 0,1 17.5,0Z" style="opacity: 0.7; stroke-width: 2px; fill: rgb(99, 110, 250); fill-opacity: 1; stroke: rgb(47, 79, 79); stroke-opacity: 1;"/><path class="point plotly-customdata" transform="translate(784.3,403.83)" d="M17.5,0A17.5,17.5 0 1,1 0,-17.5A17.5,17.5 0 0,1 17.5,0Z" style="opacity: 0.7; stroke-width: 2px; fill: rgb(99, 110, 250); fill-opacity: 1; stroke: rgb(47, 79, 79); stroke-opacity: 1;"/><path class="point plotly-customdata" transform="translate(906.12,627.36)" d="M17.5,0A17.5,17.5 0 1,1 0,-17.5A17.5,17.5 0 0,1 17.5,0Z" style="opacity: 0.7; stroke-width: 2px; fill: rgb(99, 110, 250); fill-opacity: 1; stroke: rgb(47, 79, 79); stroke-opacity: 1;"/><path class="point plotly-customdata" transform="translate(731.47,443.35)" d="M17.5,0A17.5,17.5 0 1,1 0,-17.5A17.5,17.5 0 0,1 17.5,0Z" style="opacity: 0.7; stroke-width: 2px; fill: rgb(99, 110, 250); fill-opacity: 1; stroke: rgb(47, 79, 79); stroke-opacity: 1;"/><path class="point plotly-customdata" transform="translate(692.55,523.94)" d="M17.5,0A17.5,17.5 0 1,1 0,-17.5A17.5,17.5 0 0,1 17.5,0Z" style="opacity: 0.7; stroke-width: 2px; fill: rgb(99, 110, 250); fill-opacity: 1; stroke: rgb(47, 79, 79); stroke-opacity: 1;"/><path class="point plotly-customdata" transform="translate(664.9,265.51)" d="M17.5,0A17.5,17.5 0 1,1 0,-17.5A17.5,17.5 0 0,1 17.5,0Z" style="opacity: 0.7; stroke-width: 2px; fill: rgb(99, 110, 250); fill-opacity: 1; stroke: rgb(47, 79, 79); stroke-opacity: 1;"/><path class="point plotly-customdata" transform="translate(846.46,410.61)" d="M17.5,0A17.5,17.5 0 1,1 0,-17.5A17.5,17.5 0 0,1 17.5,0Z" style="opacity: 0.7; stroke-width: 2px; fill: rgb(99, 110, 250); fill-opacity: 1; stroke: rgb(47, 79, 79); stroke-opacity: 1;"/><path class="point plotly-customdata" transform="translate(753.79,569.66)" d="M17.5,0A17.5,17.5 0 1,1 0,-17.5A17.5,17.5 0 0,1 17.5,0Z" style="opacity: 0.7; stroke-width: 2px; fill: rgb(99, 110, 250); fill-opacity: 1; stroke: rgb(47, 79, 79); stroke-opacity: 1;"/><path class="point plotly-customdata" transform="translate(656.04,260.11)" d="M17.5,0A17.5,17.5 0 1,1 0,-17.5A17.5,17.5 0 0,1 17.5,0Z" style="opacity: 0.7; stroke-width: 2px; fill: rgb(99, 110, 250); fill-opacity: 1; stroke: rgb(47, 79, 79); stroke-opacity: 1;"/><path class="point plotly-customdata" transform="translate(761.81,380.05)" d="M17.5,0A17.5,17.5 0 1,1 0,-17.5A17.5,17.5 0 0,1 17.5,0Z" style="opacity: 0.7; stroke-width: 2px; fill: rgb(99, 110, 250); fill-opacity: 1; stroke: rgb(47, 79, 79); stroke-opacity: 1;"/><path class="point plotly-customdata" transform="translate(888.36,429.05)" d="M17.5,0A17.5,17.5 0 1,1 0,-17.5A17.5,17.5 0 0,1 17.5,0Z" style="opacity: 0.7; stroke-width: 2px; fill: rgb(99, 110, 250); fill-opacity: 1; stroke: rgb(47, 79, 79); stroke-opacity: 1;"/><path class="point plotly-customdata" transform="translate(795.95,355.31)" d="M17.5,0A17.5,17.5 0 1,1 0,-17.5A17.5,17.5 0 0,1 17.5,0Z" style="opacity: 0.7; stroke-width: 2px; fill: rgb(99, 110, 250); fill-opacity: 1; stroke: rgb(47, 79, 79); stroke-opacity: 1;"/><path class="point plotly-customdata" transform="translate(707.61,372.88)" d="M17.5,0A17.5,17.5 0 1,1 0,-17.5A17.5,17.5 0 0,1 17.5,0Z" style="opacity: 0.7; stroke-width: 2px; fill: rgb(99, 110, 250); fill-opacity: 1; stroke: rgb(47, 79, 79); stroke-opacity: 1;"/><path class="point plotly-customdata" transform="translate(698.6,472)" d="M17.5,0A17.5,17.5 0 1,1 0,-17.5A17.5,17.5 0 0,1 17.5,0Z" style="opacity: 0.7; stroke-width: 2px; fill: rgb(99, 110, 250); fill-opacity: 1; stroke: rgb(47, 79, 79); stroke-opacity: 1;"/><path class="point plotly-customdata" transform="translate(772.06,308.65)" d="M17.5,0A17.5,17.5 0 1,1 0,-17.5A17.5,17.5 0 0,1 17.5,0Z" style="opacity: 0.7; stroke-width: 2px; fill: rgb(99, 110, 250); fill-opacity: 1; stroke: rgb(47, 79, 79); stroke-opacity: 1;"/><path class="point plotly-customdata" transform="translate(705.32,240.91)" d="M17.5,0A17.5,17.5 0 1,1 0,-17.5A17.5,17.5 0 0,1 17.5,0Z" style="opacity: 0.7; stroke-width: 2px; fill: rgb(99, 110, 250); fill-opacity: 1; stroke: rgb(47, 79, 79); stroke-opacity: 1;"/><path class="point plotly-customdata" transform="translate(730.29,589.19)" d="M17.5,0A17.5,17.5 0 1,1 0,-17.5A17.5,17.5 0 0,1 17.5,0Z" style="opacity: 0.7; stroke-width: 2px; fill: rgb(99, 110, 250); fill-opacity: 1; stroke: rgb(47, 79, 79); stroke-opacity: 1;"/><path class="point plotly-customdata" transform="translate(757,527.81)" d="M17.5,0A17.5,17.5 0 1,1 0,-17.5A17.5,17.5 0 0,1 17.5,0Z" style="opacity: 0.7; stroke-width: 2px; fill: rgb(99, 110, 250); fill-opacity: 1; stroke: rgb(47, 79, 79); stroke-opacity: 1;"/><path class="point plotly-customdata" transform="translate(739.57,334.78)" d="M17.5,0A17.5,17.5 0 1,1 0,-17.5A17.5,17.5 0 0,1 17.5,0Z" style="opacity: 0.7; stroke-width: 2px; fill: rgb(99, 110, 250); fill-opacity: 1; stroke: rgb(47, 79, 79); stroke-opacity: 1;"/><path class="point plotly-customdata" transform="translate(759.14,417.12)" d="M17.5,0A17.5,17.5 0 1,1 0,-17.5A17.5,17.5 0 0,1 17.5,0Z" style="opacity: 0.7; stroke-width: 2px; fill: rgb(99, 110, 250); fill-opacity: 1; stroke: rgb(47, 79, 79); stroke-opacity: 1;"/><path class="point plotly-customdata" transform="translate(758.52,261.47)" d="M17.5,0A17.5,17.5 0 1,1 0,-17.5A17.5,17.5 0 0,1 17.5,0Z" style="opacity: 0.7; stroke-width: 2px; fill: rgb(99, 110, 250); fill-opacity: 1; stroke: rgb(47, 79, 79); stroke-opacity: 1;"/><path class="point plotly-customdata" transform="translate(747.44,393.29)" d="M17.5,0A17.5,17.5 0 1,1 0,-17.5A17.5,17.5 0 0,1 17.5,0Z" style="opacity: 0.7; stroke-width: 2px; fill: rgb(99, 110, 250); fill-opacity: 1; stroke: rgb(47, 79, 79); stroke-opacity: 1;"/><path class="point plotly-customdata" transform="translate(726.82,83.86)" d="M17.5,0A17.5,17.5 0 1,1 0,-17.5A17.5,17.5 0 0,1 17.5,0Z" style="opacity: 0.7; stroke-width: 2px; fill: rgb(99, 110, 250); fill-opacity: 1; stroke: rgb(47, 79, 79); stroke-opacity: 1;"/><path class="point plotly-customdata" transform="translate(684.46,57.88)" d="M17.5,0A17.5,17.5 0 1,1 0,-17.5A17.5,17.5 0 0,1 17.5,0Z" style="opacity: 0.7; stroke-width: 2px; fill: rgb(99, 110, 250); fill-opacity: 1; stroke: rgb(47, 79, 79); stroke-opacity: 1;"/></g><g class="text"/></g><g class="trace scatter traceef41e1" style="stroke-miterlimit: 2; opacity: 1;"><g class="fills"/><g class="errorbars"/><g class="lines"/><g class="points"><path class="point plotly-customdata" transform="translate(227.01,120.16)" d="M17.5,0A17.5,17.5 0 1,1 0,-17.5A17.5,17.5 0 0,1 17.5,0Z" style="opacity: 0.7; stroke-width: 2px; fill: rgb(239, 85, 59); fill-opacity: 1; stroke: rgb(47, 79, 79); stroke-opacity: 1;"/><path class="point plotly-customdata" transform="translate(243.27,441.8)" d="M17.5,0A17.5,17.5 0 1,1 0,-17.5A17.5,17.5 0 0,1 17.5,0Z" style="opacity: 0.7; stroke-width: 2px; fill: rgb(239, 85, 59); fill-opacity: 1; stroke: rgb(47, 79, 79); stroke-opacity: 1;"/><path class="point plotly-customdata" transform="translate(233.85,346.7)" d="M17.5,0A17.5,17.5 0 1,1 0,-17.5A17.5,17.5 0 0,1 17.5,0Z" style="opacity: 0.7; stroke-width: 2px; fill: rgb(239, 85, 59); fill-opacity: 1; stroke: rgb(47, 79, 79); stroke-opacity: 1;"/><path class="point plotly-customdata" transform="translate(255.24,348.2)" d="M17.5,0A17.5,17.5 0 1,1 0,-17.5A17.5,17.5 0 0,1 17.5,0Z" style="opacity: 0.7; stroke-width: 2px; fill: rgb(239, 85, 59); fill-opacity: 1; stroke: rgb(47, 79, 79); stroke-opacity: 1;"/><path class="point plotly-customdata" transform="translate(365,467.8)" d="M17.5,0A17.5,17.5 0 1,1 0,-17.5A17.5,17.5 0 0,1 17.5,0Z" style="opacity: 0.7; stroke-width: 2px; fill: rgb(239, 85, 59); fill-opacity: 1; stroke: rgb(47, 79, 79); stroke-opacity: 1;"/><path class="point plotly-customdata" transform="translate(263.44,231.36)" d="M17.5,0A17.5,17.5 0 1,1 0,-17.5A17.5,17.5 0 0,1 17.5,0Z" style="opacity: 0.7; stroke-width: 2px; fill: rgb(239, 85, 59); fill-opacity: 1; stroke: rgb(47, 79, 79); stroke-opacity: 1;"/><path class="point plotly-customdata" transform="translate(199.22,239.32)" d="M17.5,0A17.5,17.5 0 1,1 0,-17.5A17.5,17.5 0 0,1 17.5,0Z" style="opacity: 0.7; stroke-width: 2px; fill: rgb(239, 85, 59); fill-opacity: 1; stroke: rgb(47, 79, 79); stroke-opacity: 1;"/><path class="point plotly-customdata" transform="translate(447.21,246.75)" d="M17.5,0A17.5,17.5 0 1,1 0,-17.5A17.5,17.5 0 0,1 17.5,0Z" style="opacity: 0.7; stroke-width: 2px; fill: rgb(239, 85, 59); fill-opacity: 1; stroke: rgb(47, 79, 79); stroke-opacity: 1;"/><path class="point plotly-customdata" transform="translate(190.69,475.4)" d="M17.5,0A17.5,17.5 0 1,1 0,-17.5A17.5,17.5 0 0,1 17.5,0Z" style="opacity: 0.7; stroke-width: 2px; fill: rgb(239, 85, 59); fill-opacity: 1; stroke: rgb(47, 79, 79); stroke-opacity: 1;"/><path class="point plotly-customdata" transform="translate(159.75,345.3)" d="M17.5,0A17.5,17.5 0 1,1 0,-17.5A17.5,17.5 0 0,1 17.5,0Z" style="opacity: 0.7; stroke-width: 2px; fill: rgb(239, 85, 59); fill-opacity: 1; stroke: rgb(47, 79, 79); stroke-opacity: 1;"/><path class="point plotly-customdata" transform="translate(267.71,215.08)" d="M17.5,0A17.5,17.5 0 1,1 0,-17.5A17.5,17.5 0 0,1 17.5,0Z" style="opacity: 0.7; stroke-width: 2px; fill: rgb(239, 85, 59); fill-opacity: 1; stroke: rgb(47, 79, 79); stroke-opacity: 1;"/><path class="point plotly-customdata" transform="translate(214.58,315.67)" d="M17.5,0A17.5,17.5 0 1,1 0,-17.5A17.5,17.5 0 0,1 17.5,0Z" style="opacity: 0.7; stroke-width: 2px; fill: rgb(239, 85, 59); fill-opacity: 1; stroke: rgb(47, 79, 79); stroke-opacity: 1;"/><path class="point plotly-customdata" transform="translate(275.5,108.96)" d="M17.5,0A17.5,17.5 0 1,1 0,-17.5A17.5,17.5 0 0,1 17.5,0Z" style="opacity: 0.7; stroke-width: 2px; fill: rgb(239, 85, 59); fill-opacity: 1; stroke: rgb(47, 79, 79); stroke-opacity: 1;"/><path class="point plotly-customdata" transform="translate(192.67,270.4)" d="M17.5,0A17.5,17.5 0 1,1 0,-17.5A17.5,17.5 0 0,1 17.5,0Z" style="opacity: 0.7; stroke-width: 2px; fill: rgb(239, 85, 59); fill-opacity: 1; stroke: rgb(47, 79, 79); stroke-opacity: 1;"/><path class="point plotly-customdata" transform="translate(188.64,193.48)" d="M17.5,0A17.5,17.5 0 1,1 0,-17.5A17.5,17.5 0 0,1 17.5,0Z" style="opacity: 0.7; stroke-width: 2px; fill: rgb(239, 85, 59); fill-opacity: 1; stroke: rgb(47, 79, 79); stroke-opacity: 1;"/><path class="point plotly-customdata" transform="translate(238.37,86.6)" d="M17.5,0A17.5,17.5 0 1,1 0,-17.5A17.5,17.5 0 0,1 17.5,0Z" style="opacity: 0.7; stroke-width: 2px; fill: rgb(239, 85, 59); fill-opacity: 1; stroke: rgb(47, 79, 79); stroke-opacity: 1;"/><path class="point plotly-customdata" transform="translate(194.87,222.25)" d="M17.5,0A17.5,17.5 0 1,1 0,-17.5A17.5,17.5 0 0,1 17.5,0Z" style="opacity: 0.7; stroke-width: 2px; fill: rgb(239, 85, 59); fill-opacity: 1; stroke: rgb(47, 79, 79); stroke-opacity: 1;"/><path class="point plotly-customdata" transform="translate(294.31,274.34)" d="M17.5,0A17.5,17.5 0 1,1 0,-17.5A17.5,17.5 0 0,1 17.5,0Z" style="opacity: 0.7; stroke-width: 2px; fill: rgb(239, 85, 59); fill-opacity: 1; stroke: rgb(47, 79, 79); stroke-opacity: 1;"/><path class="point plotly-customdata" transform="translate(72.48,370.87)" d="M17.5,0A17.5,17.5 0 1,1 0,-17.5A17.5,17.5 0 0,1 17.5,0Z" style="opacity: 0.7; stroke-width: 2px; fill: rgb(239, 85, 59); fill-opacity: 1; stroke: rgb(47, 79, 79); stroke-opacity: 1;"/><path class="point plotly-customdata" transform="translate(194.58,436.88)" d="M17.5,0A17.5,17.5 0 1,1 0,-17.5A17.5,17.5 0 0,1 17.5,0Z" style="opacity: 0.7; stroke-width: 2px; fill: rgb(239, 85, 59); fill-opacity: 1; stroke: rgb(47, 79, 79); stroke-opacity: 1;"/><path class="point plotly-customdata" transform="translate(149.01,440.92)" d="M17.5,0A17.5,17.5 0 1,1 0,-17.5A17.5,17.5 0 0,1 17.5,0Z" style="opacity: 0.7; stroke-width: 2px; fill: rgb(239, 85, 59); fill-opacity: 1; stroke: rgb(47, 79, 79); stroke-opacity: 1;"/><path class="point plotly-customdata" transform="translate(120.18,566.3)" d="M17.5,0A17.5,17.5 0 1,1 0,-17.5A17.5,17.5 0 0,1 17.5,0Z" style="opacity: 0.7; stroke-width: 2px; fill: rgb(239, 85, 59); fill-opacity: 1; stroke: rgb(47, 79, 79); stroke-opacity: 1;"/><path class="point plotly-customdata" transform="translate(247.73,398.83)" d="M17.5,0A17.5,17.5 0 1,1 0,-17.5A17.5,17.5 0 0,1 17.5,0Z" style="opacity: 0.7; stroke-width: 2px; fill: rgb(239, 85, 59); fill-opacity: 1; stroke: rgb(47, 79, 79); stroke-opacity: 1;"/><path class="point plotly-customdata" transform="translate(120.46,435.9)" d="M17.5,0A17.5,17.5 0 1,1 0,-17.5A17.5,17.5 0 0,1 17.5,0Z" style="opacity: 0.7; stroke-width: 2px; fill: rgb(239, 85, 59); fill-opacity: 1; stroke: rgb(47, 79, 79); stroke-opacity: 1;"/><path class="point plotly-customdata" transform="translate(202.69,542.2)" d="M17.5,0A17.5,17.5 0 1,1 0,-17.5A17.5,17.5 0 0,1 17.5,0Z" style="opacity: 0.7; stroke-width: 2px; fill: rgb(239, 85, 59); fill-opacity: 1; stroke: rgb(47, 79, 79); stroke-opacity: 1;"/><path class="point plotly-customdata" transform="translate(174.31,176.91)" d="M17.5,0A17.5,17.5 0 1,1 0,-17.5A17.5,17.5 0 0,1 17.5,0Z" style="opacity: 0.7; stroke-width: 2px; fill: rgb(239, 85, 59); fill-opacity: 1; stroke: rgb(47, 79, 79); stroke-opacity: 1;"/><path class="point plotly-customdata" transform="translate(141.67,662.13)" d="M17.5,0A17.5,17.5 0 1,1 0,-17.5A17.5,17.5 0 0,1 17.5,0Z" style="opacity: 0.7; stroke-width: 2px; fill: rgb(239, 85, 59); fill-opacity: 1; stroke: rgb(47, 79, 79); stroke-opacity: 1;"/><path class="point plotly-customdata" transform="translate(110.81,643.08)" d="M17.5,0A17.5,17.5 0 1,1 0,-17.5A17.5,17.5 0 0,1 17.5,0Z" style="opacity: 0.7; stroke-width: 2px; fill: rgb(239, 85, 59); fill-opacity: 1; stroke: rgb(47, 79, 79); stroke-opacity: 1;"/><path class="point plotly-customdata" transform="translate(252.32,397.59)" d="M17.5,0A17.5,17.5 0 1,1 0,-17.5A17.5,17.5 0 0,1 17.5,0Z" style="opacity: 0.7; stroke-width: 2px; fill: rgb(239, 85, 59); fill-opacity: 1; stroke: rgb(47, 79, 79); stroke-opacity: 1;"/><path class="point plotly-customdata" transform="translate(268.15,393.55)" d="M17.5,0A17.5,17.5 0 1,1 0,-17.5A17.5,17.5 0 0,1 17.5,0Z" style="opacity: 0.7; stroke-width: 2px; fill: rgb(239, 85, 59); fill-opacity: 1; stroke: rgb(47, 79, 79); stroke-opacity: 1;"/><path class="point plotly-customdata" transform="translate(338.77,418.94)" d="M17.5,0A17.5,17.5 0 1,1 0,-17.5A17.5,17.5 0 0,1 17.5,0Z" style="opacity: 0.7; stroke-width: 2px; fill: rgb(239, 85, 59); fill-opacity: 1; stroke: rgb(47, 79, 79); stroke-opacity: 1;"/></g><g class="text"/></g></g></g><g class="overplot"/><path class="xlines-above crisp" d="M122,821H1136" style="fill: none; stroke-width: 2px; stroke: rgb(0, 0, 0); stroke-opacity: 1;"/><path class="ylines-above crisp" d="M123,100V820" style="fill: none; stroke-width: 2px; stroke: rgb(0, 0, 0); stroke-opacity: 1;"/><g class="overlines-above"/><g class="xaxislayer-above"><g class="xtick"><text text-anchor="middle" x="0" y="847.2" transform="translate(194.7,0)" style="font-family: 'Open Sans', verdana, arial, sans-serif; font-size: 21px; fill: rgb(42, 63, 95); fill-opacity: 1; white-space: pre; opacity: 1;">−8e+4</text></g><g class="xtick"><text text-anchor="middle" x="0" y="847.2" style="font-family: 'Open Sans', verdana, arial, sans-serif; font-size: 21px; fill: rgb(42, 63, 95); fill-opacity: 1; white-space: pre; opacity: 1;" transform="translate(297.63,0)">−6e+4</text></g><g class="xtick"><text text-anchor="middle" x="0" y="847.2" style="font-family: 'Open Sans', verdana, arial, sans-serif; font-size: 21px; fill: rgb(42, 63, 95); fill-opacity: 1; white-space: pre; opacity: 1;" transform="translate(400.56,0)">−4e+4</text></g><g class="xtick"><text text-anchor="middle" x="0" y="847.2" style="font-family: 'Open Sans', verdana, arial, sans-serif; font-size: 21px; fill: rgb(42, 63, 95); fill-opacity: 1; white-space: pre; opacity: 1;" transform="translate(503.5,0)">−2e+4</text></g><g class="xtick"><text text-anchor="middle" x="0" y="847.2" style="font-family: 'Open Sans', verdana, arial, sans-serif; font-size: 21px; fill: rgb(42, 63, 95); fill-opacity: 1; white-space: pre; opacity: 1;" transform="translate(606.4300000000001,0)">0</text></g><g class="xtick"><text text-anchor="middle" x="0" y="847.2" style="font-family: 'Open Sans', verdana, arial, sans-serif; font-size: 21px; fill: rgb(42, 63, 95); fill-opacity: 1; white-space: pre; opacity: 1;" transform="translate(709.36,0)">2e+4</text></g><g class="xtick"><text text-anchor="middle" x="0" y="847.2" style="font-family: 'Open Sans', verdana, arial, sans-serif; font-size: 21px; fill: rgb(42, 63, 95); fill-opacity: 1; white-space: pre; opacity: 1;" transform="translate(812.29,0)">4e+4</text></g><g class="xtick"><text text-anchor="middle" x="0" y="847.2" style="font-family: 'Open Sans', verdana, arial, sans-serif; font-size: 21px; fill: rgb(42, 63, 95); fill-opacity: 1; white-space: pre; opacity: 1;" transform="translate(915.22,0)">6e+4</text></g><g class="xtick"><text text-anchor="middle" x="0" y="847.2" style="font-family: 'Open Sans', verdana, arial, sans-serif; font-size: 21px; fill: rgb(42, 63, 95); fill-opacity: 1; white-space: pre; opacity: 1;" transform="translate(1018.15,0)">8e+4</text></g><g class="xtick"><text text-anchor="middle" x="0" y="847.2" style="font-family: 'Open Sans', verdana, arial, sans-serif; font-size: 21px; fill: rgb(42, 63, 95); fill-opacity: 1; white-space: pre; opacity: 1;" transform="translate(1121.08,0)">1e+5</text></g></g><g class="yaxislayer-above"><g class="ytick"><text text-anchor="end" x="117.8" y="7.35" transform="translate(0,770.76)" style="font-family: 'Open Sans', verdana, arial, sans-serif; font-size: 21px; fill: rgb(42, 63, 95); fill-opacity: 1; white-space: pre; opacity: 1;">−8e+4</text></g><g class="ytick"><text text-anchor="end" x="117.8" y="7.35" style="font-family: 'Open Sans', verdana, arial, sans-serif; font-size: 21px; fill: rgb(42, 63, 95); fill-opacity: 1; white-space: pre; opacity: 1;" transform="translate(0,697.17)">−6e+4</text></g><g class="ytick"><text text-anchor="end" x="117.8" y="7.35" style="font-family: 'Open Sans', verdana, arial, sans-serif; font-size: 21px; fill: rgb(42, 63, 95); fill-opacity: 1; white-space: pre; opacity: 1;" transform="translate(0,623.59)">−4e+4</text></g><g class="ytick"><text text-anchor="end" x="117.8" y="7.35" style="font-family: 'Open Sans', verdana, arial, sans-serif; font-size: 21px; fill: rgb(42, 63, 95); fill-opacity: 1; white-space: pre; opacity: 1;" transform="translate(0,550.01)">−2e+4</text></g><g class="ytick"><text text-anchor="end" x="117.8" y="7.35" style="font-family: 'Open Sans', verdana, arial, sans-serif; font-size: 21px; fill: rgb(42, 63, 95); fill-opacity: 1; white-space: pre; opacity: 1;" transform="translate(0,476.43)">0</text></g><g class="ytick"><text text-anchor="end" x="117.8" y="7.35" style="font-family: 'Open Sans', verdana, arial, sans-serif; font-size: 21px; fill: rgb(42, 63, 95); fill-opacity: 1; white-space: pre; opacity: 1;" transform="translate(0,402.85)">2e+4</text></g><g class="ytick"><text text-anchor="end" x="117.8" y="7.35" style="font-family: 'Open Sans', verdana, arial, sans-serif; font-size: 21px; fill: rgb(42, 63, 95); fill-opacity: 1; white-space: pre; opacity: 1;" transform="translate(0,329.26)">4e+4</text></g><g class="ytick"><text text-anchor="end" x="117.8" y="7.35" style="font-family: 'Open Sans', verdana, arial, sans-serif; font-size: 21px; fill: rgb(42, 63, 95); fill-opacity: 1; white-space: pre; opacity: 1;" transform="translate(0,255.68)">6e+4</text></g><g class="ytick"><text text-anchor="end" x="117.8" y="7.35" style="font-family: 'Open Sans', verdana, arial, sans-serif; font-size: 21px; fill: rgb(42, 63, 95); fill-opacity: 1; white-space: pre; opacity: 1;" transform="translate(0,182.1)">8e+4</text></g><g class="ytick"><text text-anchor="end" x="117.8" y="7.35" style="font-family: 'Open Sans', verdana, arial, sans-serif; font-size: 21px; fill: rgb(42, 63, 95); fill-opacity: 1; white-space: pre; opacity: 1;" transform="translate(0,108.52)">1e+5</text></g></g><g class="overaxes-above"/></g></g><g class="polarlayer"/><g class="smithlayer"/><g class="ternarylayer"/><g class="geolayer"/><g class="funnelarealayer"/><g class="pielayer"/><g class="iciclelayer"/><g class="treemaplayer"/><g class="sunburstlayer"/><g class="glimages"/><defs id="topdefs-6e7c6c"><g class="clips"/><clipPath id="legend6e7c6c"><rect width="132" height="104" x="0" y="0"/></clipPath></defs><g class="layer-above"><g class="imagelayer"/><g class="shapelayer"><g class="shape-group" data-index="0" clip-path="url(#clip6e7c6cxy)"><path data-index="0" fill-rule="evenodd" d="M 951.29, 336.69L944.08, 323.61L936.59, 311.16999999999996L928.86, 299.39L920.92, 288.35L912.79, 278.06L904.52, 268.59000000000003L896.14, 259.97L887.67, 252.23L879.16, 245.4L870.63, 239.51L862.13, 234.58L853.68, 230.64L845.32, 227.7L837.09, 225.78L829.01, 224.87L821.13, 224.98000000000002L813.46, 226.12L806.05, 228.28L798.91, 231.44L792.09, 235.61L785.61, 240.75L779.49, 246.85L773.76, 253.89L768.44, 261.83000000000004L763.56, 270.65L759.12, 280.31L755.16, 290.76L751.69, 301.98L748.72, 313.90999999999997L746.26, 326.5L744.32, 339.71000000000004L742.91, 353.48L742.04, 367.75L741.71, 382.47L741.92, 397.58L742.67, 413.02L743.96, 428.72L745.77, 444.63L748.12, 460.67L750.98, 476.79L754.34, 492.92L758.19, 508.99L762.52, 524.94L767.3, 540.71L772.53, 556.23L778.17, 571.4300000000001L784.2, 586.27L790.6, 600.6700000000001L797.35, 614.58L804.42, 627.95L811.77, 640.72L819.38, 652.83L827.22, 664.25L835.26, 674.92L843.46, 684.8L851.79, 693.85L860.22, 702.04L868.72, 709.33L877.24, 715.69L885.76, 721.1L894.24, 725.53L902.65, 728.98L910.95, 731.41L919.11, 732.83L927.09, 733.23L934.87, 732.6L942.42, 730.95L949.69, 728.29L956.67, 724.62L963.33, 719.97L969.63, 714.34L975.56, 707.77L981.09, 700.28L986.19, 691.89L990.85, 682.65L995.05, 672.59L998.77, 661.74L1002, 650.17L1004.71, 637.9L1006.91, 624.99L1008.59, 611.5L1009.73, 597.47L1010.33, 582.97L1010.39, 568.04L1009.91, 552.76L1008.89, 537.1800000000001L1007.34, 521.37L1005.25, 505.39L1002.65, 489.3L999.54, 473.16L995.93, 457.06L991.84, 441.04L987.28, 425.17L982.27, 409.52L976.84, 394.15L971, 379.12L964.78, 364.5L958.2, 350.33000000000004L951.29, 336.69 Z" style="opacity: 1; stroke: rgb(99, 110, 250); stroke-opacity: 1; fill: rgb(0, 0, 0); fill-opacity: 0; stroke-width: 2px;"/></g><g class="shape-group" data-index="1" clip-path="url(#clip6e7c6cxy)"><path data-index="1" fill-rule="evenodd" d="M 468.77, 212.86L462.91, 202.64L456.58, 193.4L449.79, 185.2L442.59, 178.07L434.99, 172.01999999999998L427.03, 167.1L418.73, 163.31L410.14, 160.67000000000002L401.29, 159.2L392.2, 158.89L382.93, 159.75L373.5, 161.79L363.96000000000004, 164.98000000000002L354.34000000000003, 169.31L344.68, 174.76999999999998L335.03, 181.34L325.40999999999997, 188.99L315.87, 197.69L306.44, 207.4L297.16999999999996, 218.09L288.1, 229.71L279.25, 242.21L270.65999999999997, 255.55L262.37, 269.66999999999996L254.42, 284.51L246.82999999999998, 300.01L239.63, 316.12L232.86, 332.77L226.53, 349.88L220.69, 367.4L215.34, 385.25L210.51999999999998, 403.35L206.23000000000002, 421.64L202.5, 440.05L199.35, 458.49L196.78, 476.89L194.81, 495.19L193.44, 513.3L192.68, 531.15L192.54000000000002, 548.6800000000001L193, 565.8L194.07999999999998, 582.46L195.76, 598.5799999999999L198.05, 614.1L200.93, 628.96L204.38, 643.09L208.4, 656.45L212.97, 668.97L218.07, 680.61L223.68, 691.32L229.78, 701.05L236.34, 709.77L243.34, 717.44L250.74, 724.04L258.53, 729.53L266.65999999999997, 733.89L275.11, 737.1L283.84000000000003, 739.16L292.81, 740.05L301.99, 739.77L311.35, 738.32L320.84000000000003, 735.71L330.41999999999996, 731.94L340.07, 727.04L349.73, 721.02L359.37, 713.91L368.95, 705.73L378.44, 696.52L387.79, 686.32L396.97, 675.16L405.94, 663.09L414.66, 650.17L423.1, 636.43L431.23, 621.94L439, 606.76L446.4, 590.95L453.39, 574.56L459.94, 557.6700000000001L466.03, 540.35L471.63, 522.6600000000001L476.72, 504.67L481.27, 486.46L485.28, 468.11L488.72, 449.68L491.59, 431.24L493.86, 412.88L495.53, 394.67L496.59, 376.68L497.05, 358.98L496.89, 341.65L496.11, 324.75L494.73, 308.35L492.75, 292.53L490.17, 277.33000000000004L487, 262.82L483.26, 249.07L478.96, 236.13L474.13, 224.04000000000002L468.77, 212.86 Z" style="opacity: 1; stroke: rgb(239, 85, 59); stroke-opacity: 1; fill: rgb(0, 0, 0); fill-opacity: 0; stroke-width: 2px;"/></g></g></g><g class="infolayer"><g class="legend" pointer-events="all" transform="translate(1156.24,100)"><rect class="bg" shape-rendering="crispEdges" style="stroke: rgb(68, 68, 68); stroke-opacity: 1; fill: rgb(0, 0, 0); fill-opacity: 0; stroke-width: 0px;" width="132" height="104" x="0" y="0"/><g class="scrollbox" transform="" clip-path="url(#legend6e7c6c)"><text class="legendtitletext" text-anchor="start" x="2" y="32.5" style="font-family: 'Open Sans', verdana, arial, sans-serif; font-size: 25px; fill: rgb(42, 63, 95); fill-opacity: 1; white-space: pre;">Group</text><g class="groups" transform=""><g class="traces" transform="translate(0,52.65)" style="opacity: 1;"><text class="legendtext" text-anchor="start" x="40" y="8.19" style="font-family: 'Open Sans', verdana, arial, sans-serif; font-size: 21px; fill: rgb(42, 63, 95); fill-opacity: 1; white-space: pre;">Group B</text><g class="layers" style="opacity: 1;"><g class="legendfill"/><g class="legendlines"/><g class="legendsymbols"><g class="legendpoints"><path class="scatterpts" transform="translate(20,0)" d="M8,0A8,8 0 1,1 0,-8A8,8 0 0,1 8,0Z" style="opacity: 0.7; stroke-width: 2px; fill: rgb(99, 110, 250); fill-opacity: 1; stroke: rgb(47, 79, 79); stroke-opacity: 1;"/></g></g></g><rect class="legendtoggle" x="0" y="-15.15" width="126.15625" height="30.3" style="fill: rgb(0, 0, 0); fill-opacity: 0;"/></g></g><g class="groups" transform=""><g class="traces" transform="translate(0,82.95)" style="opacity: 1;"><text class="legendtext" text-anchor="start" x="40" y="8.19" style="font-family: 'Open Sans', verdana, arial, sans-serif; font-size: 21px; fill: rgb(42, 63, 95); fill-opacity: 1; white-space: pre;">Group A</text><g class="layers" style="opacity: 1;"><g class="legendfill"/><g class="legendlines"/><g class="legendsymbols"><g class="legendpoints"><path class="scatterpts" transform="translate(20,0)" d="M8,0A8,8 0 1,1 0,-8A8,8 0 0,1 8,0Z" style="opacity: 0.7; stroke-width: 2px; fill: rgb(239, 85, 59); fill-opacity: 1; stroke: rgb(47, 79, 79); stroke-opacity: 1;"/></g></g></g><rect class="legendtoggle" x="0" y="-15.15" width="126.15625" height="30.3" style="fill: rgb(0, 0, 0); fill-opacity: 0;"/></g></g></g><rect class="scrollbar" rx="20" ry="3" width="0" height="0" style="fill: rgb(128, 139, 164); fill-opacity: 1;" x="0" y="0"/></g><g class="g-gtitle"><text class="gtitle" x="650" y="45" text-anchor="middle" dy="0.7em" style="font-family: 'Open Sans', verdana, arial, sans-serif; font-size: 29px; fill: rgb(42, 63, 95); opacity: 1; white-space: pre;"><tspan style="font-weight:bold">OPLS-DA Scores Plot<tspan style="font-weight:bold"></tspan></tspan></text></g><g class="g-xtitle"><text class="xtitle" x="630" y="882.703125" text-anchor="middle" style="font-family: 'Open Sans', verdana, arial, sans-serif; font-size: 25px; fill: rgb(42, 63, 95); opacity: 1; white-space: pre;">t​<tspan style="font-size:70%" dy="0.3em">scores</tspan><tspan dy="-0.21em">​</tspan></text></g><g class="g-ytitle" transform="translate(3.546875,0)"><text class="ytitle" transform="rotate(-90,21.453125,460)" x="21.453125" y="460" text-anchor="middle" style="font-family: 'Open Sans', verdana, arial, sans-serif; font-size: 25px; fill: rgb(42, 63, 95); opacity: 1; white-space: pre;">t​<tspan style="font-size:70%" dy="0.3em">orthogonal</tspan><tspan dy="-0.21em">​</tspan></text></g><g class="annotation" data-index="0" style="opacity: 1;"><g class="annotation-text-g" transform="rotate(0,198.5,50.19999999999995)"><g class="cursor-pointer" transform="translate(124,35)"><rect class="bg" x="0.5" y="0.5" width="148" height="29" style="stroke-width: 1px; stroke: rgb(0, 0, 0); stroke-opacity: 0; fill: rgb(0, 0, 0); fill-opacity: 0;"/><text class="annotation-text" text-anchor="start" x="2" y="24.40625" style="font-family: 'Open Sans', verdana, arial, sans-serif; font-size: 20px; fill: rgb(0, 0, 0); fill-opacity: 1; white-space: pre;"><tspan style="font-weight:bold">R​<tspan style="font-size:70%" dy="-0.6em">2</tspan><tspan dy="0.42em">​</tspan>X: 55.58%<tspan style="font-weight:bold"></tspan></tspan></text></g></g></g><g class="annotation" data-index="1" style="opacity: 1;"><g class="annotation-text-g" transform="rotate(0,198.5,78.99999999999997)"><g class="cursor-pointer" transform="translate(124,64)"><rect class="bg" x="0.5" y="0.5" width="148" height="29" style="stroke-width: 1px; stroke: rgb(0, 0, 0); stroke-opacity: 0; fill: rgb(0, 0, 0); fill-opacity: 0;"/><text class="annotation-text" text-anchor="start" x="2" y="24.40625" style="font-family: 'Open Sans', verdana, arial, sans-serif; font-size: 20px; fill: rgb(0, 0, 0); fill-opacity: 1; white-space: pre;"><tspan style="font-weight:bold">R​<tspan style="font-size:70%" dy="-0.6em">2</tspan><tspan dy="0.42em">​</tspan>Y: 96.44%<tspan style="font-weight:bold"></tspan></tspan></text></g></g></g><g class="annotation" data-index="2" style="opacity: 1;"><g class="annotation-text-g" transform="rotate(0,191.5,21.899999999999924)"><g class="cursor-pointer" transform="translate(124,6)"><rect class="bg" x="0.5" y="0.5" width="134" height="30" style="stroke-width: 1px; stroke: rgb(0, 0, 0); stroke-opacity: 0; fill: rgb(0, 0, 0); fill-opacity: 0;"/><text class="annotation-text" text-anchor="start" x="2" y="24.40625" style="font-family: 'Open Sans', verdana, arial, sans-serif; font-size: 20px; fill: rgb(0, 0, 0); fill-opacity: 1; white-space: pre;"><tspan style="font-weight:bold">Q​<tspan style="font-size:70%" dy="-0.6em">2</tspan><tspan dy="0.42em">​</tspan>: 92.94%<tspan style="font-weight:bold"></tspan></tspan></text></g></g></g></g></svg>