<svg class="main-svg" xmlns="http://www.w3.org/2000/svg" xmlns:xlink="http://www.w3.org/1999/xlink" width="1300" height="900" style="" viewBox="0 0 1300 900"><rect x="0" y="0" width="1300" height="900" style="fill: rgb(0, 0, 0); fill-opacity: 0;"/><defs id="defs-0fb146"><g class="clips"><clipPath id="clip0fb146xyplot" class="plotclip"><rect width="917" height="720"/></clipPath><clipPath class="axesclip" id="clip0fb146x"><rect x="120" y="0" width="917" height="900"/></clipPath><clipPath class="axesclip" id="clip0fb146y"><rect x="0" y="100" width="1300" height="720"/></clipPath><clipPath class="axesclip" id="clip0fb146xy"><rect x="120" y="100" width="917" height="720"/></clipPath></g><g class="gradients"/><g class="patterns"/></defs><g class="bglayer"><rect class="bg" x="120" y="100" width="917" height="720" style="fill: rgb(0, 0, 0); fill-opacity: 0; stroke-width: 0;"/></g><g class="layer-below"><g class="imagelayer"/><g class="shapelayer"/></g><g class="cartesianlayer"><g class="subplot xy"><g class="layer-subplot"><g class="shapelayer"/><g class="imagelayer"/></g><g class="minor-gridlayer"><g class="x"/><g class="y"/></g><g class="gridlayer"><g class="x"><path class="xgrid crisp" transform="translate(213.51,0)" d="M0,100v720" style="stroke: rgb(255, 255, 255); stroke-opacity: 1; stroke-width: 1px;"/><path class="xgrid crisp" transform="translate(331.31,0)" d="M0,100v720" style="stroke: rgb(255, 255, 255); stroke-opacity: 1; stroke-width: 1px;"/><path class="xgrid crisp" transform="translate(566.9100000000001,0)" d="M0,100v720" style="stroke: rgb(255, 255, 255); stroke-opacity: 1; stroke-width: 1px;"/><path class="xgrid crisp" transform="translate(684.72,0)" d="M0,100v720" style="stroke: rgb(255, 255, 255); stroke-opacity: 1; stroke-width: 1px;"/><path class="xgrid crisp" transform="translate(802.52,0)" d="M0,100v720" style="stroke: rgb(255, 255, 255); stroke-opacity: 1; stroke-width: 1px;"/><path class="xgrid crisp" transform="translate(920.32,0)" d="M0,100v720" style="stroke: rgb(255, 255, 255); stroke-opacity: 1; stroke-width: 1px;"/></g><g class="y"><path class="ygrid crisp" transform="translate(0,737.29)" d="M120,0h917" style="stroke: rgb(255, 255, 255); stroke-opacity: 1; stroke-width: 1px;"/><path class="ygrid crisp" transform="translate(0,625.31)" d="M120,0h917" style="stroke: rgb(255, 255, 255); stroke-opacity: 1; stroke-width: 1px;"/><path class="ygrid crisp" transform="translate(0,401.35)" d="M120,0h917" style="stroke: rgb(255, 255, 255); stroke-opacity: 1; stroke-width: 1px;"/><path class="ygrid crisp" transform="translate(0,289.37)" d="M120,0h917" style="stroke: rgb(255, 255, 255); stroke-opacity: 1; stroke-width: 1px;"/><path class="ygrid crisp" transform="translate(0,177.39)" d="M120,0h917" style="stroke: rgb(255, 255, 255); stroke-opacity: 1; stroke-width: 1px;"/></g></g><g class="zerolinelayer"><path class="xzl zl crisp" transform="translate(449.11,0)" d="M0,100v720" style="stroke: rgb(0, 0, 0); stroke-opacity: 1; stroke-width: 2px;"/><path class="yzl zl crisp" transform="translate(0,513.3299999999999)" d="M120,0h917" style="stroke: rgb(0, 0, 0); stroke-opacity: 1; stroke-width: 2px;"/></g><g class="layer-between"><g class="shapelayer"/><g class="imagelayer"/></g><path class="xlines-below"/><path class="ylines-below"/><g class="overlines-below"/><g class="xaxislayer-below"/><g class="yaxislayer-below"/><g class="overaxes-below"/><g class="plot" transform="translate(120,100)" clip-path="url(#clip0fb146xyplot)"><g class="scatterlayer mlayer"><g class="trace scatter trace5acb5c" style="stroke-miterlimit: 2; opacity: 1;"><g class="fills"/><g class="errorbars"/><g class="lines"/><g class="points"><path class="point plotly-customdata" transform="translate(849.27,528.96)" d="M17.5,0A17.5,17.5 0 1,1 0,-17.5A17.5,17.5 0 0,1 17.5,0Z" style="opacity: 0.7; stroke-width: 2px; fill: rgb(99, 110, 250); fill-opacity: 1; stroke: rgb(47, 79, 79); stroke-opacity: 1;"/><path class="point plotly-customdata" transform="translate(129.77,431.42)" d="M17.5,0A17.5,17.5 0 1,1 0,-17.5A17.5,17.5 0 0,1 17.5,0Z" style="opacity: 0.7; stroke-width: 2px; fill: rgb(99, 110, 250); fill-opacity: 1; stroke: rgb(47, 79, 79); stroke-opacity: 1;"/><path class="point plotly-customdata" transform="translate(369.51,57.88)" d="M17.5,0A17.5,17.5 0 1,1 0,-17.5A17.5,17.5 0 0,1 17.5,0Z" style="opacity: 0.7; stroke-width: 2px; fill: rgb(99, 110, 250); fill-opacity: 1; stroke: rgb(47, 79, 79); stroke-opacity: 1;"/><path class="point plotly-customdata" transform="translate(539.71,377.68)" d="M17.5,0A17.5,17.5 0 1,1 0,-17.5A17.5,17.5 0 0,1 17.5,0Z" style="opacity: 0.7; stroke-width: 2px; fill: rgb(99, 110, 250); fill-opacity: 1; stroke: rgb(47, 79, 79); stroke-opacity: 1;"/><path class="point plotly-customdata" transform="translate(337.4,220)" d="M17.5,0A17.5,17.5 0 1,1 0,-17.5A17.5,17.5 0 0,1 17.5,0Z" style="opacity: 0.7; stroke-width: 2px; fill: rgb(99, 110, 250); fill-opacity: 1; stroke: rgb(47, 79, 79); stroke-opacity: 1;"/><path class="point plotly-customdata" transform="translate(514.64,257.7)" d="M17.5,0A17.5,17.5 0 1,1 0,-17.5A17.5,17.5 0 0,1 17.5,0Z" style="opacity: 0.7; stroke-width: 2px; fill: rgb(99, 110, 250); fill-opacity: 1; stroke: rgb(47, 79, 79); stroke-opacity: 1;"/><path class="point plotly-customdata" transform="translate(560.51,291.67)" d="M17.5,0A17.5,17.5 0 1,1 0,-17.5A17.5,17.5 0 0,1 17.5,0Z" style="opacity: 0.7; stroke-width: 2px; fill: rgb(99, 110, 250); fill-opacity: 1; stroke: rgb(47, 79, 79); stroke-opacity: 1;"/><path class="point plotly-customdata" transform="translate(521.14,313.16)" d="M17.5,0A17.5,17.5 0 1,1 0,-17.5A17.5,17.5 0 0,1 17.5,0Z" style="opacity: 0.7; stroke-width: 2px; fill: rgb(99, 110, 250); fill-opacity: 1; stroke: rgb(47, 79, 79); stroke-opacity: 1;"/><path class="point plotly-customdata" transform="translate(400.19,632.37)" d="M17.5,0A17.5,17.5 0 1,1 0,-17.5A17.5,17.5 0 0,1 17.5,0Z" style="opacity: 0.7; stroke-width: 2px; fill: rgb(99, 110, 250); fill-opacity: 1; stroke: rgb(47, 79, 79); stroke-opacity: 1;"/><path class="point plotly-customdata" transform="translate(391.7,486.81)" d="M17.5,0A17.5,17.5 0 1,1 0,-17.5A17.5,17.5 0 0,1 17.5,0Z" style="opacity: 0.7; stroke-width: 2px; fill: rgb(99, 110, 250); fill-opacity: 1; stroke: rgb(47, 79, 79); stroke-opacity: 1;"/><path class="point plotly-customdata" transform="translate(501.78,389.83)" d="M17.5,0A17.5,17.5 0 1,1 0,-17.5A17.5,17.5 0 0,1 17.5,0Z" style="opacity: 0.7; stroke-width: 2px; fill: rgb(99, 110, 250); fill-opacity: 1; stroke: rgb(47, 79, 79); stroke-opacity: 1;"/></g><g class="text"/></g><g class="trace scatter trace96e5b8" style="stroke-miterlimit: 2; opacity: 1;"><g class="fills"/><g class="errorbars"/><g class="lines"/><g class="points"><path class="point plotly-customdata" transform="translate(162.72,473.07)" d="M22.75,0L0,22.75L-22.75,0L0,-22.75Z" style="opacity: 0.7; stroke-width: 2px; fill: rgb(99, 110, 250); fill-opacity: 1; stroke: rgb(47, 79, 79); stroke-opacity: 1;"/><path class="point plotly-customdata" transform="translate(347.18,485.39)" d="M22.75,0L0,22.75L-22.75,0L0,-22.75Z" style="opacity: 0.7; stroke-width: 2px; fill: rgb(99, 110, 250); fill-opacity: 1; stroke: rgb(47, 79, 79); stroke-opacity: 1;"/><path class="point plotly-customdata" transform="translate(356.7,609.53)" d="M22.75,0L0,22.75L-22.75,0L0,-22.75Z" style="opacity: 0.7; stroke-width: 2px; fill: rgb(99, 110, 250); fill-opacity: 1; stroke: rgb(47, 79, 79); stroke-opacity: 1;"/><path class="point plotly-customdata" transform="translate(250.68,520.92)" d="M22.75,0L0,22.75L-22.75,0L0,-22.75Z" style="opacity: 0.7; stroke-width: 2px; fill: rgb(99, 110, 250); fill-opacity: 1; stroke: rgb(47, 79, 79); stroke-opacity: 1;"/><path class="point plotly-customdata" transform="translate(187.52,513.09)" d="M22.75,0L0,22.75L-22.75,0L0,-22.75Z" style="opacity: 0.7; stroke-width: 2px; fill: rgb(99, 110, 250); fill-opacity: 1; stroke: rgb(47, 79, 79); stroke-opacity: 1;"/><path class="point plotly-customdata" transform="translate(221.37,500.19)" d="M22.75,0L0,22.75L-22.75,0L0,-22.75Z" style="opacity: 0.7; stroke-width: 2px; fill: rgb(99, 110, 250); fill-opacity: 1; stroke: rgb(47, 79, 79); stroke-opacity: 1;"/><path class="point plotly-customdata" transform="translate(376.51,543.55)" d="M22.75,0L0,22.75L-22.75,0L0,-22.75Z" style="opacity: 0.7; stroke-width: 2px; fill: rgb(99, 110, 250); fill-opacity: 1; stroke: rgb(47, 79, 79); stroke-opacity: 1;"/><path class="point plotly-customdata" transform="translate(261.75,448.92)" d="M22.75,0L0,22.75L-22.75,0L0,-22.75Z" style="opacity: 0.7; stroke-width: 2px; fill: rgb(99, 110, 250); fill-opacity: 1; stroke: rgb(47, 79, 79); stroke-opacity: 1;"/><path class="point plotly-customdata" transform="translate(250.49,514.66)" d="M22.75,0L0,22.75L-22.75,0L0,-22.75Z" style="opacity: 0.7; stroke-width: 2px; fill: rgb(99, 110, 250); fill-opacity: 1; stroke: rgb(47, 79, 79); stroke-opacity: 1;"/><path class="point plotly-customdata" transform="translate(276.02,496.11)" d="M22.75,0L0,22.75L-22.75,0L0,-22.75Z" style="opacity: 0.7; stroke-width: 2px; fill: rgb(99, 110, 250); fill-opacity: 1; stroke: rgb(47, 79, 79); stroke-opacity: 1;"/></g><g class="text"/></g><g class="trace scatter traceaa6348" style="stroke-miterlimit: 2; opacity: 1;"><g class="fills"/><g class="errorbars"/><g class="lines"/><g class="points"><path class="point plotly-customdata" transform="translate(338.36,566.97)" d="M17.5,17.5H-17.5V-17.5H17.5Z" style="opacity: 0.7; stroke-width: 2px; fill: rgb(99, 110, 250); fill-opacity: 1; stroke: rgb(47, 79, 79); stroke-opacity: 1;"/><path class="point plotly-customdata" transform="translate(333.7,476.6)" d="M17.5,17.5H-17.5V-17.5H17.5Z" style="opacity: 0.7; stroke-width: 2px; fill: rgb(99, 110, 250); fill-opacity: 1; stroke: rgb(47, 79, 79); stroke-opacity: 1;"/><path class="point plotly-customdata" transform="translate(204.14,358.03)" d="M17.5,17.5H-17.5V-17.5H17.5Z" style="opacity: 0.7; stroke-width: 2px; fill: rgb(99, 110, 250); fill-opacity: 1; stroke: rgb(47, 79, 79); stroke-opacity: 1;"/><path class="point plotly-customdata" transform="translate(337.35,526.23)" d="M17.5,17.5H-17.5V-17.5H17.5Z" style="opacity: 0.7; stroke-width: 2px; fill: rgb(99, 110, 250); fill-opacity: 1; stroke: rgb(47, 79, 79); stroke-opacity: 1;"/><path class="point plotly-customdata" transform="translate(136.6,439.04)" d="M17.5,17.5H-17.5V-17.5H17.5Z" style="opacity: 0.7; stroke-width: 2px; fill: rgb(99, 110, 250); fill-opacity: 1; stroke: rgb(47, 79, 79); stroke-opacity: 1;"/><path class="point plotly-customdata" transform="translate(197.93,499.71)" d="M17.5,17.5H-17.5V-17.5H17.5Z" style="opacity: 0.7; stroke-width: 2px; fill: rgb(99, 110, 250); fill-opacity: 1; stroke: rgb(47, 79, 79); stroke-opacity: 1;"/><path class="point plotly-customdata" transform="translate(382.07,554.72)" d="M17.5,17.5H-17.5V-17.5H17.5Z" style="opacity: 0.7; stroke-width: 2px; fill: rgb(99, 110, 250); fill-opacity: 1; stroke: rgb(47, 79, 79); stroke-opacity: 1;"/><path class="point plotly-customdata" transform="translate(375.43,560.81)" d="M17.5,17.5H-17.5V-17.5H17.5Z" style="opacity: 0.7; stroke-width: 2px; fill: rgb(99, 110, 250); fill-opacity: 1; stroke: rgb(47, 79, 79); stroke-opacity: 1;"/><path class="point plotly-customdata" transform="translate(423.07,510.16)" d="M17.5,17.5H-17.5V-17.5H17.5Z" style="opacity: 0.7; stroke-width: 2px; fill: rgb(99, 110, 250); fill-opacity: 1; stroke: rgb(47, 79, 79); stroke-opacity: 1;"/><path class="point plotly-customdata" transform="translate(692.27,660.03)" d="M17.5,17.5H-17.5V-17.5H17.5Z" style="opacity: 0.7; stroke-width: 2px; fill: rgb(99, 110, 250); fill-opacity: 1; stroke: rgb(47, 79, 79); stroke-opacity: 1;"/></g><g class="text"/></g><g class="trace scatter trace24433e" style="stroke-miterlimit: 2; opacity: 1;"><g class="fills"/><g class="errorbars"/><g class="lines"/><g class="points"><path class="point plotly-customdata" transform="translate(292.55,543.96)" d="M0,9.9l9.9,9.9l9.9,-9.9l-9.9,-9.9l9.9,-9.9l-9.9,-9.9l-9.9,9.9l-9.9,-9.9l-9.9,9.9l9.9,9.9l-9.9,9.9l9.9,9.9Z" style="opacity: 0.7; stroke-width: 2px; fill: rgb(99, 110, 250); fill-opacity: 1; stroke: rgb(47, 79, 79); stroke-opacity: 1;"/><path class="point plotly-customdata" transform="translate(230.36,524.62)" d="M0,9.9l9.9,9.9l9.9,-9.9l-9.9,-9.9l9.9,-9.9l-9.9,-9.9l-9.9,9.9l-9.9,-9.9l-9.9,9.9l9.9,9.9l-9.9,9.9l9.9,9.9Z" style="opacity: 0.7; stroke-width: 2px; fill: rgb(99, 110, 250); fill-opacity: 1; stroke: rgb(47, 79, 79); stroke-opacity: 1;"/><path class="point plotly-customdata" transform="translate(313.83,445.96)" d="M0,9.9l9.9,9.9l9.9,-9.9l-9.9,-9.9l9.9,-9.9l-9.9,-9.9l-9.9,9.9l-9.9,-9.9l-9.9,9.9l9.9,9.9l-9.9,9.9l9.9,9.9Z" style="opacity: 0.7; stroke-width: 2px; fill: rgb(99, 110, 250); fill-opacity: 1; stroke: rgb(47, 79, 79); stroke-opacity: 1;"/><path class="point plotly-customdata" transform="translate(186.96,479.65)" d="M0,9.9l9.9,9.9l9.9,-9.9l-9.9,-9.9l9.9,-9.9l-9.9,-9.9l-9.9,9.9l-9.9,-9.9l-9.9,9.9l9.9,9.9l-9.9,9.9l9.9,9.9Z" style="opacity: 0.7; stroke-width: 2px; fill: rgb(99, 110, 250); fill-opacity: 1; stroke: rgb(47, 79, 79); stroke-opacity: 1;"/><path class="point plotly-customdata" transform="translate(135.6,441.78)" d="M0,9.9l9.9,9.9l9.9,-9.9l-9.9,-9.9l9.9,-9.9l-9.9,-9.9l-9.9,9.9l-9.9,-9.9l-9.9,9.9l9.9,9.9l-9.9,9.9l9.9,9.9Z" style="opacity: 0.7; stroke-width: 2px; fill: rgb(99, 110, 250); fill-opacity: 1; stroke: rgb(47, 79, 79); stroke-opacity: 1;"/><path class="point plotly-customdata" transform="translate(255.52,534.7)" d="M0,9.9l9.9,9.9l9.9,-9.9l-9.9,-9.9l9.9,-9.9l-9.9,-9.9l-9.9,9.9l-9.9,-9.9l-9.9,9.9l9.9,9.9l-9.9,9.9l9.9,9.9Z" style="opacity: 0.7; stroke-width: 2px; fill: rgb(99, 110, 250); fill-opacity: 1; stroke: rgb(47, 79, 79); stroke-opacity: 1;"/><path class="point plotly-customdata" transform="translate(434.16,636.93)" d="M0,9.9l9.9,9.9l9.9,-9.9l-9.9,-9.9l9.9,-9.9l-9.9,-9.9l-9.9,9.9l-9.9,-9.9l-9.9,9.9l9.9,9.9l-9.9,9.9l9.9,9.9Z" style="opacity: 0.7; stroke-width: 2px; fill: rgb(99, 110, 250); fill-opacity: 1; stroke: rgb(47, 79, 79); stroke-opacity: 1;"/><path class="point plotly-customdata" transform="translate(401.27,581.83)" d="M0,9.9l9.9,9.9l9.9,-9.9l-9.9,-9.9l9.9,-9.9l-9.9,-9.9l-9.9,9.9l-9.9,-9.9l-9.9,9.9l9.9,9.9l-9.9,9.9l9.9,9.9Z" style="opacity: 0.7; stroke-width: 2px; fill: rgb(99, 110, 250); fill-opacity: 1; stroke: rgb(47, 79, 79); stroke-opacity: 1;"/><path class="point plotly-customdata" transform="translate(364.72,609.5)" d="M0,9.9l9.9,9.9l9.9,-9.9l-9.9,-9.9l9.9,-9.9l-9.9,-9.9l-9.9,9.9l-9.9,-9.9l-9.9,9.9l9.9,9.9l-9.9,9.9l9.9,9.9Z" style="opacity: 0.7; stroke-width: 2px; fill: rgb(99, 110, 250); fill-opacity: 1; stroke: rgb(47, 79, 79); stroke-opacity: 1;"/><path class="point plotly-customdata" transform="translate(627.72,661.47)" d="M0,9.9l9.9,9.9l9.9,-9.9l-9.9,-9.9l9.9,-9.9l-9.9,-9.9l-9.9,9.9l-9.9,-9.9l-9.9,9.9l9.9,9.9l-9.9,9.9l9.9,9.9Z" style="opacity: 0.7; stroke-width: 2px; fill: rgb(99, 110, 250); fill-opacity: 1; stroke: rgb(47, 79, 79); stroke-opacity: 1;"/><path class="point plotly-customdata" transform="translate(249.08,521.56)" d="M0,9.9l9.9,9.9l9.9,-9.9l-9.9,-9.9l9.9,-9.9l-9.9,-9.9l-9.9,9.9l-9.9,-9.9l-9.9,9.9l9.9,9.9l-9.9,9.9l9.9,9.9Z" style="opacity: 0.7; stroke-width: 2px; fill: rgb(99, 110, 250); fill-opacity: 1; stroke: rgb(47, 79, 79); stroke-opacity: 1;"/></g><g class="text"/></g><g class="trace scatter traceb0eedc" style="stroke-miterlimit: 2; opacity: 1;"><g class="fills"/><g class="errorbars"/><g class="lines"/><g class="points"><path class="point plotly-customdata" transform="translate(494.27,358.43)" d="M17.5,0A17.5,17.5 0 1,1 0,-17.5A17.5,17.5 0 0,1 17.5,0Z" style="opacity: 0.7; stroke-width: 2px; fill: rgb(239, 85, 59); fill-opacity: 1; stroke: rgb(47, 79, 79); stroke-opacity: 1;"/><path class="point plotly-customdata" transform="translate(299.5,195.66)" d="M17.5,0A17.5,17.5 0 1,1 0,-17.5A17.5,17.5 0 0,1 17.5,0Z" style="opacity: 0.7; stroke-width: 2px; fill: rgb(239, 85, 59); fill-opacity: 1; stroke: rgb(47, 79, 79); stroke-opacity: 1;"/><path class="point plotly-customdata" transform="translate(280.09,207.5)" d="M17.5,0A17.5,17.5 0 1,1 0,-17.5A17.5,17.5 0 0,1 17.5,0Z" style="opacity: 0.7; stroke-width: 2px; fill: rgb(239, 85, 59); fill-opacity: 1; stroke: rgb(47, 79, 79); stroke-opacity: 1;"/><path class="point plotly-customdata" transform="translate(748.38,431.93)" d="M17.5,0A17.5,17.5 0 1,1 0,-17.5A17.5,17.5 0 0,1 17.5,0Z" style="opacity: 0.7; stroke-width: 2px; fill: rgb(239, 85, 59); fill-opacity: 1; stroke: rgb(47, 79, 79); stroke-opacity: 1;"/><path class="point plotly-customdata" transform="translate(466.07,197.26)" d="M17.5,0A17.5,17.5 0 1,1 0,-17.5A17.5,17.5 0 0,1 17.5,0Z" style="opacity: 0.7; stroke-width: 2px; fill: rgb(239, 85, 59); fill-opacity: 1; stroke: rgb(47, 79, 79); stroke-opacity: 1;"/><path class="point plotly-customdata" transform="translate(358.81,414.32)" d="M17.5,0A17.5,17.5 0 1,1 0,-17.5A17.5,17.5 0 0,1 17.5,0Z" style="opacity: 0.7; stroke-width: 2px; fill: rgb(239, 85, 59); fill-opacity: 1; stroke: rgb(47, 79, 79); stroke-opacity: 1;"/><path class="point plotly-customdata" transform="translate(708.9,416.15)" d="M17.5,0A17.5,17.5 0 1,1 0,-17.5A17.5,17.5 0 0,1 17.5,0Z" style="opacity: 0.7; stroke-width: 2px; fill: rgb(239, 85, 59); fill-opacity: 1; stroke: rgb(47, 79, 79); stroke-opacity: 1;"/><path class="point plotly-customdata" transform="translate(427.98,290.45)" d="M17.5,0A17.5,17.5 0 1,1 0,-17.5A17.5,17.5 0 0,1 17.5,0Z" style="opacity: 0.7; stroke-width: 2px; fill: rgb(239, 85, 59); fill-opacity: 1; stroke: rgb(47, 79, 79); stroke-opacity: 1;"/><path class="point plotly-customdata" transform="translate(498.45,417.22)" d="M17.5,0A17.5,17.5 0 1,1 0,-17.5A17.5,17.5 0 0,1 17.5,0Z" style="opacity: 0.7; stroke-width: 2px; fill: rgb(239, 85, 59); fill-opacity: 1; stroke: rgb(47, 79, 79); stroke-opacity: 1;"/><path class="point plotly-customdata" transform="translate(531.99,213.96)" d="M17.5,0A17.5,17.5 0 1,1 0,-17.5A17.5,17.5 0 0,1 17.5,0Z" style="opacity: 0.7; stroke-width: 2px; fill: rgb(239, 85, 59); fill-opacity: 1; stroke: rgb(47, 79, 79); stroke-opacity: 1;"/></g><g class="text"/></g><g class="trace scatter trace54c54e" style="stroke-miterlimit: 2; opacity: 1;"><g class="fills"/><g class="errorbars"/><g class="lines"/><g class="points"><path class="point plotly-customdata" transform="translate(225.14,312.07)" d="M22.75,0L0,22.75L-22.75,0L0,-22.75Z" style="opacity: 0.7; stroke-width: 2px; fill: rgb(239, 85, 59); fill-opacity: 1; stroke: rgb(47, 79, 79); stroke-opacity: 1;"/><path class="point plotly-customdata" transform="translate(438.17,119.19)" d="M22.75,0L0,22.75L-22.75,0L0,-22.75Z" style="opacity: 0.7; stroke-width: 2px; fill: rgb(239, 85, 59); fill-opacity: 1; stroke: rgb(47, 79, 79); stroke-opacity: 1;"/><path class="point plotly-customdata" transform="translate(215.48,384.67)" d="M22.75,0L0,22.75L-22.75,0L0,-22.75Z" style="opacity: 0.7; stroke-width: 2px; fill: rgb(239, 85, 59); fill-opacity: 1; stroke: rgb(47, 79, 79); stroke-opacity: 1;"/><path class="point plotly-customdata" transform="translate(200.72,481.72)" d="M22.75,0L0,22.75L-22.75,0L0,-22.75Z" style="opacity: 0.7; stroke-width: 2px; fill: rgb(239, 85, 59); fill-opacity: 1; stroke: rgb(47, 79, 79); stroke-opacity: 1;"/><path class="point plotly-customdata" transform="translate(152.26,433.37)" d="M22.75,0L0,22.75L-22.75,0L0,-22.75Z" style="opacity: 0.7; stroke-width: 2px; fill: rgb(239, 85, 59); fill-opacity: 1; stroke: rgb(47, 79, 79); stroke-opacity: 1;"/><path class="point plotly-customdata" transform="translate(470.69,310.33)" d="M22.75,0L0,22.75L-22.75,0L0,-22.75Z" style="opacity: 0.7; stroke-width: 2px; fill: rgb(239, 85, 59); fill-opacity: 1; stroke: rgb(47, 79, 79); stroke-opacity: 1;"/><path class="point plotly-customdata" transform="translate(413.35,216.95)" d="M22.75,0L0,22.75L-22.75,0L0,-22.75Z" style="opacity: 0.7; stroke-width: 2px; fill: rgb(239, 85, 59); fill-opacity: 1; stroke: rgb(47, 79, 79); stroke-opacity: 1;"/><path class="point plotly-customdata" transform="translate(331.52,171.02)" d="M22.75,0L0,22.75L-22.75,0L0,-22.75Z" style="opacity: 0.7; stroke-width: 2px; fill: rgb(239, 85, 59); fill-opacity: 1; stroke: rgb(47, 79, 79); stroke-opacity: 1;"/><path class="point plotly-customdata" transform="translate(291.76,195.7)" d="M22.75,0L0,22.75L-22.75,0L0,-22.75Z" style="opacity: 0.7; stroke-width: 2px; fill: rgb(239, 85, 59); fill-opacity: 1; stroke: rgb(47, 79, 79); stroke-opacity: 1;"/><path class="point plotly-customdata" transform="translate(270.43,192.09)" d="M22.75,0L0,22.75L-22.75,0L0,-22.75Z" style="opacity: 0.7; stroke-width: 2px; fill: rgb(239, 85, 59); fill-opacity: 1; stroke: rgb(47, 79, 79); stroke-opacity: 1;"/></g><g class="text"/></g><g class="trace scatter trace6a03dd" style="stroke-miterlimit: 2; opacity: 1;"><g class="fills"/><g class="errorbars"/><g class="lines"/><g class="points"><path class="point plotly-customdata" transform="translate(130.2,434.02)" d="M17.5,17.5H-17.5V-17.5H17.5Z" style="opacity: 0.7; stroke-width: 2px; fill: rgb(239, 85, 59); fill-opacity: 1; stroke: rgb(47, 79, 79); stroke-opacity: 1;"/><path class="point plotly-customdata" transform="translate(163.33,420.44)" d="M17.5,17.5H-17.5V-17.5H17.5Z" style="opacity: 0.7; stroke-width: 2px; fill: rgb(239, 85, 59); fill-opacity: 1; stroke: rgb(47, 79, 79); stroke-opacity: 1;"/><path class="point plotly-customdata" transform="translate(467.39,296.43)" d="M17.5,17.5H-17.5V-17.5H17.5Z" style="opacity: 0.7; stroke-width: 2px; fill: rgb(239, 85, 59); fill-opacity: 1; stroke: rgb(47, 79, 79); stroke-opacity: 1;"/><path class="point plotly-customdata" transform="translate(292.14,236.83)" d="M17.5,17.5H-17.5V-17.5H17.5Z" style="opacity: 0.7; stroke-width: 2px; fill: rgb(239, 85, 59); fill-opacity: 1; stroke: rgb(47, 79, 79); stroke-opacity: 1;"/><path class="point plotly-customdata" transform="translate(149.74,488.44)" d="M17.5,17.5H-17.5V-17.5H17.5Z" style="opacity: 0.7; stroke-width: 2px; fill: rgb(239, 85, 59); fill-opacity: 1; stroke: rgb(47, 79, 79); stroke-opacity: 1;"/><path class="point plotly-customdata" transform="translate(181.96,310.21)" d="M17.5,17.5H-17.5V-17.5H17.5Z" style="opacity: 0.7; stroke-width: 2px; fill: rgb(239, 85, 59); fill-opacity: 1; stroke: rgb(47, 79, 79); stroke-opacity: 1;"/><path class="point plotly-customdata" transform="translate(100.8,463.27)" d="M17.5,17.5H-17.5V-17.5H17.5Z" style="opacity: 0.7; stroke-width: 2px; fill: rgb(239, 85, 59); fill-opacity: 1; stroke: rgb(47, 79, 79); stroke-opacity: 1;"/><path class="point plotly-customdata" transform="translate(153.29,360.59)" d="M17.5,17.5H-17.5V-17.5H17.5Z" style="opacity: 0.7; stroke-width: 2px; fill: rgb(239, 85, 59); fill-opacity: 1; stroke: rgb(47, 79, 79); stroke-opacity: 1;"/><path class="point plotly-customdata" transform="translate(316.52,293.02)" d="M17.5,17.5H-17.5V-17.5H17.5Z" style="opacity: 0.7; stroke-width: 2px; fill: rgb(239, 85, 59); fill-opacity: 1; stroke: rgb(47, 79, 79); stroke-opacity: 1;"/></g><g class="text"/></g><g class="trace scatter tracea0488b" style="stroke-miterlimit: 2; opacity: 1;"><g class="fills"/><g class="errorbars"/><g class="lines"/><g class="points"><path class="point plotly-customdata" transform="translate(179.15,447.69)" d="M0,9.9l9.9,9.9l9.9,-9.9l-9.9,-9.9l9.9,-9.9l-9.9,-9.9l-9.9,9.9l-9.9,-9.9l-9.9,9.9l9.9,9.9l-9.9,9.9l9.9,9.9Z" style="opacity: 0.7; stroke-width: 2px; fill: rgb(239, 85, 59); fill-opacity: 1; stroke: rgb(47, 79, 79); stroke-opacity: 1;"/><path class="point plotly-customdata" transform="translate(196.1,362.02)" d="M0,9.9l9.9,9.9l9.9,-9.9l-9.9,-9.9l9.9,-9.9l-9.9,-9.9l-9.9,9.9l-9.9,-9.9l-9.9,9.9l9.9,9.9l-9.9,9.9l9.9,9.9Z" style="opacity: 0.7; stroke-width: 2px; fill: rgb(239, 85, 59); fill-opacity: 1; stroke: rgb(47, 79, 79); stroke-opacity: 1;"/><path class="point plotly-customdata" transform="translate(307.31,450.26)" d="M0,9.9l9.9,9.9l9.9,-9.9l-9.9,-9.9l9.9,-9.9l-9.9,-9.9l-9.9,9.9l-9.9,-9.9l-9.9,9.9l9.9,9.9l-9.9,9.9l9.9,9.9Z" style="opacity: 0.7; stroke-width: 2px; fill: rgb(239, 85, 59); fill-opacity: 1; stroke: rgb(47, 79, 79); stroke-opacity: 1;"/><path class="point plotly-customdata" transform="translate(152.54,436.04)" d="M0,9.9l9.9,9.9l9.9,-9.9l-9.9,-9.9l9.9,-9.9l-9.9,-9.9l-9.9,9.9l-9.9,-9.9l-9.9,9.9l9.9,9.9l-9.9,9.9l9.9,9.9Z" style="opacity: 0.7; stroke-width: 2px; fill: rgb(239, 85, 59); fill-opacity: 1; stroke: rgb(47, 79, 79); stroke-opacity: 1;"/><path class="point plotly-customdata" transform="translate(205.6,406.84)" d="M0,9.9l9.9,9.9l9.9,-9.9l-9.9,-9.9l9.9,-9.9l-9.9,-9.9l-9.9,9.9l-9.9,-9.9l-9.9,9.9l9.9,9.9l-9.9,9.9l9.9,9.9Z" style="opacity: 0.7; stroke-width: 2px; fill: rgb(239, 85, 59); fill-opacity: 1; stroke: rgb(47, 79, 79); stroke-opacity: 1;"/><path class="point plotly-customdata" transform="translate(262.26,237.59)" d="M0,9.9l9.9,9.9l9.9,-9.9l-9.9,-9.9l9.9,-9.9l-9.9,-9.9l-9.9,9.9l-9.9,-9.9l-9.9,9.9l9.9,9.9l-9.9,9.9l9.9,9.9Z" style="opacity: 0.7; stroke-width: 2px; fill: rgb(239, 85, 59); fill-opacity: 1; stroke: rgb(47, 79, 79); stroke-opacity: 1;"/><path class="point plotly-customdata" transform="translate(247.66,433.41)" d="M0,9.9l9.9,9.9l9.9,-9.9l-9.9,-9.9l9.9,-9.9l-9.9,-9.9l-9.9,9.9l-9.9,-9.9l-9.9,9.9l9.9,9.9l-9.9,9.9l9.9,9.9Z" style="opacity: 0.7; stroke-width: 2px; fill: rgb(239, 85, 59); fill-opacity: 1; stroke: rgb(47, 79, 79); stroke-opacity: 1;"/><path class="point plotly-customdata" transform="translate(264.95,464.25)" d="M0,9.9l9.9,9.9l9.9,-9.9l-9.9,-9.9l9.9,-9.9l-9.9,-9.9l-9.9,9.9l-9.9,-9.9l-9.9,9.9l9.9,9.9l-9.9,9.9l9.9,9.9Z" style="opacity: 0.7; stroke-width: 2px; fill: rgb(239, 85, 59); fill-opacity: 1; stroke: rgb(47, 79, 79); stroke-opacity: 1;"/><path class="point plotly-customdata" transform="translate(187.19,389.65)" d="M0,9.9l9.9,9.9l9.9,-9.9l-9.9,-9.9l9.9,-9.9l-9.9,-9.9l-9.9,9.9l-9.9,-9.9l-9.9,9.9l9.9,9.9l-9.9,9.9l9.9,9.9Z" style="opacity: 0.7; stroke-width: 2px; fill: rgb(239, 85, 59); fill-opacity: 1; stroke: rgb(47, 79, 79); stroke-opacity: 1;"/><path class="point plotly-customdata" transform="translate(156.81,361.29)" d="M0,9.9l9.9,9.9l9.9,-9.9l-9.9,-9.9l9.9,-9.9l-9.9,-9.9l-9.9,9.9l-9.9,-9.9l-9.9,9.9l9.9,9.9l-9.9,9.9l9.9,9.9Z" style="opacity: 0.7; stroke-width: 2px; fill: rgb(239, 85, 59); fill-opacity: 1; stroke: rgb(47, 79, 79); stroke-opacity: 1;"/></g><g class="text"/></g></g></g><g class="overplot"/><path class="xlines-above crisp" d="M118,821H1037" style="fill: none; stroke-width: 2px; stroke: rgb(0, 0, 0); stroke-opacity: 1;"/><path class="ylines-above crisp" d="M119,100V820" style="fill: none; stroke-width: 2px; stroke: rgb(0, 0, 0); stroke-opacity: 1;"/><g class="overlines-above"/><g class="xaxislayer-above"><g class="xtick"><text text-anchor="middle" x="0" y="847.2" transform="translate(213.51,0)" style="font-family: 'Open Sans', verdana, arial, sans-serif; font-size: 21px; fill: rgb(42, 63, 95); fill-opacity: 1; white-space: pre; opacity: 1;">−100k</text></g><g class="xtick"><text text-anchor="middle" x="0" y="847.2" style="font-family: 'Open Sans', verdana, arial, sans-serif; font-size: 21px; fill: rgb(42, 63, 95); fill-opacity: 1; white-space: pre; opacity: 1;" transform="translate(331.31,0)">−50k</text></g><g class="xtick"><text text-anchor="middle" x="0" y="847.2" style="font-family: 'Open Sans', verdana, arial, sans-serif; font-size: 21px; fill: rgb(42, 63, 95); fill-opacity: 1; white-space: pre; opacity: 1;" transform="translate(449.11,0)">0</text></g><g class="xtick"><text text-anchor="middle" x="0" y="847.2" style="font-family: 'Open Sans', verdana, arial, sans-serif; font-size: 21px; fill: rgb(42, 63, 95); fill-opacity: 1; white-space: pre; opacity: 1;" transform="translate(566.9100000000001,0)">50k</text></g><g class="xtick"><text text-anchor="middle" x="0" y="847.2" style="font-family: 'Open Sans', verdana, arial, sans-serif; font-size: 21px; fill: rgb(42, 63, 95); fill-opacity: 1; white-space: pre; opacity: 1;" transform="translate(684.72,0)">100k</text></g><g class="xtick"><text text-anchor="middle" x="0" y="847.2" style="font-family: 'Open Sans', verdana, arial, sans-serif; font-size: 21px; fill: rgb(42, 63, 95); fill-opacity: 1; white-space: pre; opacity: 1;" transform="translate(802.52,0)">150k</text></g><g class="xtick"><text text-anchor="middle" x="0" y="847.2" style="font-family: 'Open Sans', verdana, arial, sans-serif; font-size: 21px; fill: rgb(42, 63, 95); fill-opacity: 1; white-space: pre; opacity: 1;" transform="translate(920.32,0)">200k</text></g></g><g class="yaxislayer-above"><g class="ytick"><text text-anchor="end" x="113.8" y="7.35" transform="translate(0,737.29)" style="font-family: 'Open Sans', verdana, arial, sans-serif; font-size: 21px; fill: rgb(42, 63, 95); fill-opacity: 1; white-space: pre; opacity: 1;">−100k</text></g><g class="ytick"><text text-anchor="end" x="113.8" y="7.35" style="font-family: 'Open Sans', verdana, arial, sans-serif; font-size: 21px; fill: rgb(42, 63, 95); fill-opacity: 1; white-space: pre; opacity: 1;" transform="translate(0,625.31)">−50k</text></g><g class="ytick"><text text-anchor="end" x="113.8" y="7.35" style="font-family: 'Open Sans', verdana, arial, sans-serif; font-size: 21px; fill: rgb(42, 63, 95); fill-opacity: 1; white-space: pre; opacity: 1;" transform="translate(0,513.3299999999999)">0</text></g><g class="ytick"><text text-anchor="end" x="113.8" y="7.35" style="font-family: 'Open Sans', verdana, arial, sans-serif; font-size: 21px; fill: rgb(42, 63, 95); fill-opacity: 1; white-space: pre; opacity: 1;" transform="translate(0,401.35)">50k</text></g><g class="ytick"><text text-anchor="end" x="113.8" y="7.35" style="font-family: 'Open Sans', verdana, arial, sans-serif; font-size: 21px; fill: rgb(42, 63, 95); fill-opacity: 1; white-space: pre; opacity: 1;" transform="translate(0,289.37)">100k</text></g><g class="ytick"><text text-anchor="end" x="113.8" y="7.35" style="font-family: 'Open Sans', verdana, arial, sans-serif; font-size: 21px; fill: rgb(42, 63, 95); fill-opacity: 1; white-space: pre; opacity: 1;" transform="translate(0,177.39)">150k</text></g></g><g class="overaxes-above"/></g></g><g class="polarlayer"/><g class="smithlayer"/><g class="ternarylayer"/><g class="geolayer"/><g class="funnelarealayer"/><g class="pielayer"/><g class="iciclelayer"/><g class="treemaplayer"/><g class="sunburstlayer"/><g class="glimages"/><defs id="topdefs-0fb146"><g class="clips"/><clipPath id="legend0fb146"><rect width="233" height="285" x="0" y="0"/></clipPath></defs><g class="layer-above"><g class="imagelayer"/><g class="shapelayer"><g class="shape-group" data-index="0" clip-path="url(#clip0fb146xy)"><path data-index="0" fill-rule="evenodd" d="M 679.46, 418.36L665.04, 407.75L649.83, 397.85L633.9, 388.68L617.31, 380.29L600.13, 372.71L582.4300000000001, 365.97L564.28, 360.1L545.75, 355.12L526.9200000000001, 351.05L507.86, 347.90999999999997L488.65, 345.71000000000004L469.37, 344.47L450.09, 344.16999999999996L430.89, 344.84000000000003L411.85, 346.45L393.05, 349.01L374.56, 352.51L356.45, 356.94L338.81, 362.26L321.69, 368.47L305.18, 375.54L289.33000000000004, 383.44L274.21000000000004, 392.13L259.88, 401.59L246.39, 411.78L233.81, 422.64L222.18, 434.15L211.56, 446.25L201.97, 458.9L193.47, 472.04L186.07999999999998, 485.62L179.82999999999998, 499.59L174.76, 513.89L170.88, 528.46L168.2, 543.24L166.74, 558.1800000000001L166.5, 573.21L167.49, 588.28L169.7, 603.3199999999999L173.12, 618.27L177.73, 633.08L183.53, 647.68L190.47, 662.01L198.55, 676.02L207.72, 689.64L217.95, 702.84L229.2, 715.54L241.42000000000002, 727.71L254.56, 739.28L268.57, 750.23L283.39, 760.49L298.97, 770.03L315.23, 778.82L332.12, 786.81L349.57, 793.97L367.51, 800.28L385.86, 805.71L404.55, 810.23L423.5, 813.84L442.65, 816.51L461.9, 818.23L481.2, 819L500.44, 818.82L519.5699999999999, 817.68L538.5, 815.58L557.1600000000001, 812.55L575.46, 808.59L593.35, 803.71L610.74, 797.94L627.56, 791.3L643.75, 783.81L659.24, 775.51L673.98, 766.43L687.89, 756.6L700.93, 746.07L713.04, 734.88L724.17, 723.07L734.29, 710.69L743.34, 697.79L751.29, 684.42L758.11, 670.64L763.77, 656.5L768.25, 642.06L771.53, 627.37L773.6, 612.5L774.45, 597.51L774.07, 582.45L772.47, 567.39L769.66, 552.39L765.64, 537.5L760.43, 522.79L754.06, 508.32L746.54, 494.14L737.91, 480.32L728.21, 466.9L717.46, 453.95L705.73, 441.5L693.04, 429.63L679.46, 418.36 Z" style="opacity: 1; stroke: rgb(99, 110, 250); stroke-opacity: 1; fill: rgb(0, 0, 0); fill-opacity: 0; stroke-width: 2px;"/></g><g class="shape-group" data-index="1" clip-path="url(#clip0fb146xy)"><path data-index="1" fill-rule="evenodd" d="M 669.69, 276.36L657.53, 268.86L644.45, 262.05L630.48, 255.96L615.7, 250.6L600.15, 246.01L583.89, 242.2L567.01, 239.18L549.55, 236.98L531.6, 235.59L513.23, 235.02L494.5, 235.27L475.5, 236.35L456.3, 238.25L436.98, 240.96L417.61, 244.47L398.28, 248.77L379.06, 253.84L360.03, 259.65L341.27, 266.19L322.85, 273.43L304.84000000000003, 281.34000000000003L287.32, 289.89L270.36, 299.03999999999996L254.03, 308.76L238.39, 319.01L223.51, 329.74L209.44, 340.91999999999996L196.25, 352.49L183.98, 364.42L172.69, 376.64L162.41, 389.13L153.2, 401.81L145.09, 414.66L138.11, 427.6L132.29, 440.59L127.65, 453.57L124.22, 466.51L122, 479.33L121, 492L121.23, 504.45L122.69, 516.65L125.38, 528.53L129.27, 540.06L134.36, 551.1800000000001L140.62, 561.86L148.04, 572.05L156.57, 581.7L166.19, 590.78L176.85, 599.25L188.51999999999998, 607.0799999999999L201.15, 614.24L214.68, 620.69L229.06, 626.42L244.24, 631.39L260.15, 635.6L276.72, 639.01L293.9, 641.63L311.61, 643.43L329.78999999999996, 644.41L348.35, 644.56L367.22, 643.89L386.33, 642.4L405.6, 640.1L424.96, 636.99L444.31, 633.08L463.6, 628.39L482.73, 622.95L501.64, 616.77L520.24, 609.88L538.46, 602.3L556.23, 594.06L573.48, 585.21L590.14, 575.77L606.13, 565.78L621.4, 555.29L635.88, 544.3299999999999L649.52, 532.95L662.25, 521.19L674.04, 509.11L684.83, 496.75L694.58, 484.16L703.24, 471.39L710.79, 458.49L717.2, 445.52L722.43, 432.52L726.47, 419.55L729.3, 406.67L730.91, 393.92L731.29, 381.35L730.44, 369.02L728.37, 356.97L725.08, 345.26L720.58, 333.93L714.91, 323.02L708.06, 312.59000000000003L700.09, 302.65999999999997L691.01, 293.28999999999996L680.86, 284.51L669.69, 276.36 Z" style="opacity: 1; stroke: rgb(239, 85, 59); stroke-opacity: 1; fill: rgb(0, 0, 0); fill-opacity: 0; stroke-width: 2px;"/></g></g></g><g class="infolayer"><g class="legend" pointer-events="all" transform="translate(1055.3400000000001,100)"><rect class="bg" shape-rendering="crispEdges" width="233" height="285" x="0" y="0" style="stroke: rgb(68, 68, 68); stroke-opacity: 1; fill: rgb(0, 0, 0); fill-opacity: 0; stroke-width: 0px;"/><g class="scrollbox" transform="" clip-path="url(#legend0fb146)"><text class="legendtitletext" text-anchor="start" x="2" y="32.5" style="font-family: 'Open Sans', verdana, arial, sans-serif; font-size: 25px; fill: rgb(42, 63, 95); fill-opacity: 1; white-space: pre;">Group, Time point</text><g class="groups" transform=""><g class="traces" transform="translate(0,52.65)" style="opacity: 1;"><text class="legendtext" text-anchor="start" x="40" y="8.19" style="font-family: 'Open Sans', verdana, arial, sans-serif; font-size: 21px; fill: rgb(42, 63, 95); fill-opacity: 1; white-space: pre;">Group A, 1</text><g class="layers" style="opacity: 1;"><g class="legendfill"/><g class="legendlines"/><g class="legendsymbols"><g class="legendpoints"><path class="scatterpts" transform="translate(20,0)" d="M8,0A8,8 0 1,1 0,-8A8,8 0 0,1 8,0Z" style="opacity: 0.7; stroke-width: 2px; fill: rgb(99, 110, 250); fill-opacity: 1; stroke: rgb(47, 79, 79); stroke-opacity: 1;"/></g></g></g><rect class="legendtoggle" x="0" y="-15.15" width="154.515625" height="30.3" style="fill: rgb(0, 0, 0); fill-opacity: 0;"/></g></g><g class="groups" transform=""><g class="traces" transform="translate(0,82.95)" style="opacity: 1;"><text class="legendtext" text-anchor="start" x="40" y="8.19" style="font-family: 'Open Sans', verdana, arial, sans-serif; font-size: 21px; fill: rgb(42, 63, 95); fill-opacity: 1; white-space: pre;">Group A, 3</text><g class="layers" style="opacity: 1;"><g class="legendfill"/><g class="legendlines"/><g class="legendsymbols"><g class="legendpoints"><path class="scatterpts" transform="translate(20,0)" d="M10.4,0L0,10.4L-10.4,0L0,-10.4Z" style="opacity: 0.7; stroke-width: 2px; fill: rgb(99, 110, 250); fill-opacity: 1; stroke: rgb(47, 79, 79); stroke-opacity: 1;"/></g></g></g><rect class="legendtoggle" x="0" y="-15.15" width="154.515625" height="30.3" style="fill: rgb(0, 0, 0); fill-opacity: 0;"/></g></g><g class="groups" transform=""><g class="traces" transform="translate(0,113.25)" style="opacity: 1;"><text class="legendtext" text-anchor="start" x="40" y="8.19" style="font-family: 'Open Sans', verdana, arial, sans-serif; font-size: 21px; fill: rgb(42, 63, 95); fill-opacity: 1; white-space: pre;">Group A, 2</text><g class="layers" style="opacity: 1;"><g class="legendfill"/><g class="legendlines"/><g class="legendsymbols"><g class="legendpoints"><path class="scatterpts" transform="translate(20,0)" d="M8,8H-8V-8H8Z" style="opacity: 0.7; stroke-width: 2px; fill: rgb(99, 110, 250); fill-opacity: 1; stroke: rgb(47, 79, 79); stroke-opacity: 1;"/></g></g></g><rect class="legendtoggle" x="0" y="-15.15" width="154.515625" height="30.3" style="fill: rgb(0, 0, 0); fill-opacity: 0;"/></g></g><g class="groups" transform=""><g class="traces" transform="translate(0,143.55)" style="opacity: 1;"><text class="legendtext" text-anchor="start" x="40" y="8.19" style="font-family: 'Open Sans', verdana, arial, sans-serif; font-size: 21px; fill: rgb(42, 63, 95); fill-opacity: 1; white-space: pre;">Group A, 4</text><g class="layers" style="opacity: 1;"><g class="legendfill"/><g class="legendlines"/><g class="legendsymbols"><g class="legendpoints"><path class="scatterpts" transform="translate(20,0)" d="M0,4.53l4.53,4.53l4.53,-4.53l-4.53,-4.53l4.53,-4.53l-4.53,-4.53l-4.53,4.53l-4.53,-4.53l-4.53,4.53l4.53,4.53l-4.53,4.53l4.53,4.53Z" style="opacity: 0.7; stroke-width: 2px; fill: rgb(99, 110, 250); fill-opacity: 1; stroke: rgb(47, 79, 79); stroke-opacity: 1;"/></g></g></g><rect class="legendtoggle" x="0" y="-15.15" width="154.515625" height="30.3" style="fill: rgb(0, 0, 0); fill-opacity: 0;"/></g></g><g class="groups" transform=""><g class="traces" transform="translate(0,173.85)" style="opacity: 1;"><text class="legendtext" text-anchor="start" x="40" y="8.19" style="font-family: 'Open Sans', verdana, arial, sans-serif; font-size: 21px; fill: rgb(42, 63, 95); fill-opacity: 1; white-space: pre;">Group B, 1</text><g class="layers" style="opacity: 1;"><g class="legendfill"/><g class="legendlines"/><g class="legendsymbols"><g class="legendpoints"><path class="scatterpts" transform="translate(20,0)" d="M8,0A8,8 0 1,1 0,-8A8,8 0 0,1 8,0Z" style="opacity: 0.7; stroke-width: 2px; fill: rgb(239, 85, 59); fill-opacity: 1; stroke: rgb(47, 79, 79); stroke-opacity: 1;"/></g></g></g><rect class="legendtoggle" x="0" y="-15.15" width="154.515625" height="30.3" style="fill: rgb(0, 0, 0); fill-opacity: 0;"/></g></g><g class="groups" transform=""><g class="traces" transform="translate(0,204.15)" style="opacity: 1;"><text class="legendtext" text-anchor="start" x="40" y="8.19" style="font-family: 'Open Sans', verdana, arial, sans-serif; font-size: 21px; fill: rgb(42, 63, 95); fill-opacity: 1; white-space: pre;">Group B, 3</text><g class="layers" style="opacity: 1;"><g class="legendfill"/><g class="legendlines"/><g class="legendsymbols"><g class="legendpoints"><path class="scatterpts" transform="translate(20,0)" d="M10.4,0L0,10.4L-10.4,0L0,-10.4Z" style="opacity: 0.7; stroke-width: 2px; fill: rgb(239, 85, 59); fill-opacity: 1; stroke: rgb(47, 79, 79); stroke-opacity: 1;"/></g></g></g><rect class="legendtoggle" x="0" y="-15.15" width="154.515625" height="30.3" style="fill: rgb(0, 0, 0); fill-opacity: 0;"/></g></g><g class="groups" transform=""><g class="traces" transform="translate(0,234.45000000000002)" style="opacity: 1;"><text class="legendtext" text-anchor="start" x="40" y="8.19" style="font-family: 'Open Sans', verdana, arial, sans-serif; font-size: 21px; fill: rgb(42, 63, 95); fill-opacity: 1; white-space: pre;">Group B, 2</text><g class="layers" style="opacity: 1;"><g class="legendfill"/><g class="legendlines"/><g class="legendsymbols"><g class="legendpoints"><path class="scatterpts" transform="translate(20,0)" d="M8,8H-8V-8H8Z" style="opacity: 0.7; stroke-width: 2px; fill: rgb(239, 85, 59); fill-opacity: 1; stroke: rgb(47, 79, 79); stroke-opacity: 1;"/></g></g></g><rect class="legendtoggle" x="0" y="-15.15" width="154.515625" height="30.3" style="fill: rgb(0, 0, 0); fill-opacity: 0;"/></g></g><g class="groups" transform=""><g class="traces" transform="translate(0,264.75)" style="opacity: 1;"><text class="legendtext" text-anchor="start" x="40" y="8.19" style="font-family: 'Open Sans', verdana, arial, sans-serif; font-size: 21px; fill: rgb(42, 63, 95); fill-opacity: 1; white-space: pre;">Group B, 4</text><g class="layers" style="opacity: 1;"><g class="legendfill"/><g class="legendlines"/><g class="legendsymbols"><g class="legendpoints"><path class="scatterpts" transform="translate(20,0)" d="M0,4.53l4.53,4.53l4.53,-4.53l-4.53,-4.53l4.53,-4.53l-4.53,-4.53l-4.53,4.53l-4.53,-4.53l-4.53,4.53l4.53,4.53l-4.53,4.53l4.53,4.53Z" style="opacity: 0.7; stroke-width: 2px; fill: rgb(239, 85, 59); fill-opacity: 1; stroke: rgb(47, 79, 79); stroke-opacity: 1;"/></g></g></g><rect class="legendtoggle" x="0" y="-15.15" width="154.515625" height="30.3" style="fill: rgb(0, 0, 0); fill-opacity: 0;"/></g></g></g><rect class="scrollbar" rx="20" ry="3" width="0" height="0" x="0" y="0" style="fill: rgb(128, 139, 164); fill-opacity: 1;"/></g><g class="g-gtitle"><text class="gtitle" x="650" y="45" text-anchor="middle" dy="0.7em" style="font-family: 'Open Sans', verdana, arial, sans-serif; font-size: 29px; fill: rgb(42, 63, 95); opacity: 1; white-space: pre;"><tspan style="font-weight:bold">PCA Scores Plot<tspan style="font-weight:bold"> pareto scaling</tspan></tspan></text></g><g class="g-xtitle"><text class="xtitle" x="578.5" y="882.703125" text-anchor="middle" style="font-family: 'Open Sans', verdana, arial, sans-serif; font-size: 25px; fill: rgb(42, 63, 95); opacity: 1; white-space: pre;">PC1 R​<tspan style="font-size:70%" dy="-0.6em">2</tspan><tspan dy="0.42em">​</tspan>X: 30.62%</text></g><g class="g-ytitle" transform="translate(7.125,0)"><text class="ytitle" transform="rotate(-90,21.375,460)" x="21.375" y="460" text-anchor="middle" style="font-family: 'Open Sans', verdana, arial, sans-serif; font-size: 25px; fill: rgb(42, 63, 95); opacity: 1; white-space: pre;">PC2 R​<tspan style="font-size:70%" dy="-0.6em">2</tspan><tspan dy="0.42em">​</tspan>X: 24.76%</text></g><g class="annotation" data-index="0" style="opacity: 1;"><g class="annotation-text-g" transform="rotate(0,923,769)"><g class="cursor-pointer" transform="translate(809,754)"><rect class="bg" x="0.5" y="0.5" width="227" height="29" style="stroke-width: 1px; stroke: rgb(0, 0, 0); stroke-opacity: 0; fill: rgb(0, 0, 0); fill-opacity: 0;"/><text class="annotation-text" text-anchor="start" x="2" y="24.40625" style="font-family: 'Open Sans', verdana, arial, sans-serif; font-size: 20px; fill: rgb(0, 0, 0); fill-opacity: 1; white-space: pre;"><tspan style="font-weight:bold">R​<tspan style="font-size:70%" dy="-0.6em">2</tspan><tspan dy="0.42em">​</tspan>X (Cum): 55.38%<tspan style="font-weight:bold"></tspan></tspan></text></g></g></g><g class="annotation" data-index="1" style="opacity: 1;"><g class="annotation-text-g" transform="rotate(0,929.5,797.3)"><g class="cursor-pointer" transform="translate(822,782)"><rect class="bg" x="0.5" y="0.5" width="214" height="30" style="stroke-width: 1px; stroke: rgb(0, 0, 0); stroke-opacity: 0; fill: rgb(0, 0, 0); fill-opacity: 0;"/><text class="annotation-text" text-anchor="start" x="2" y="24.40625" style="font-family: 'Open Sans', verdana, arial, sans-serif; font-size: 20px; fill: rgb(0, 0, 0); fill-opacity: 1; white-space: pre;"><tspan style="font-weight:bold">Q​<tspan style="font-size:70%" dy="-0.6em">2</tspan><tspan dy="0.42em">​</tspan>X (Cum): 34.9%<tspan style="font-weight:bold"></tspan></tspan></text></g></g></g></g></svg>