<svg class="main-svg" xmlns="http://www.w3.org/2000/svg" xmlns:xlink="http://www.w3.org/1999/xlink" width="1300" height="900" style="" viewBox="0 0 1300 900"><rect x="0" y="0" width="1300" height="900" style="fill: rgb(0, 0, 0); fill-opacity: 0;"/><defs id="defs-b4498e"><g class="clips"><clipPath id="clipb4498exyplot" class="plotclip"><rect width="917" height="720"/></clipPath><clipPath class="axesclip" id="clipb4498ex"><rect x="120" y="0" width="917" height="900"/></clipPath><clipPath class="axesclip" id="clipb4498ey"><rect x="0" y="100" width="1300" height="720"/></clipPath><clipPath class="axesclip" id="clipb4498exy"><rect x="120" y="100" width="917" height="720"/></clipPath></g><g class="gradients"/><g class="patterns"/></defs><g class="bglayer"><rect class="bg" x="120" y="100" width="917" height="720" style="fill: rgb(0, 0, 0); fill-opacity: 0; stroke-width: 0;"/></g><g class="layer-below"><g class="imagelayer"/><g class="shapelayer"/></g><g class="cartesianlayer"><g class="subplot xy"><g class="layer-subplot"><g class="shapelayer"/><g class="imagelayer"/></g><g class="minor-gridlayer"><g class="x"/><g class="y"/></g><g class="gridlayer"><g class="x"><path class="xgrid crisp" transform="translate(213.55,0)" d="M0,100v720" style="stroke: rgb(255, 255, 255); stroke-opacity: 1; stroke-width: 1px;"/><path class="xgrid crisp" transform="translate(331.34000000000003,0)" d="M0,100v720" style="stroke: rgb(255, 255, 255); stroke-opacity: 1; stroke-width: 1px;"/><path class="xgrid crisp" transform="translate(566.9300000000001,0)" d="M0,100v720" style="stroke: rgb(255, 255, 255); stroke-opacity: 1; stroke-width: 1px;"/><path class="xgrid crisp" transform="translate(684.73,0)" d="M0,100v720" style="stroke: rgb(255, 255, 255); stroke-opacity: 1; stroke-width: 1px;"/><path class="xgrid crisp" transform="translate(802.53,0)" d="M0,100v720" style="stroke: rgb(255, 255, 255); stroke-opacity: 1; stroke-width: 1px;"/><path class="xgrid crisp" transform="translate(920.32,0)" d="M0,100v720" style="stroke: rgb(255, 255, 255); stroke-opacity: 1; stroke-width: 1px;"/></g><g class="y"><path class="ygrid crisp" transform="translate(0,818.05)" d="M120,0h917" style="stroke: rgb(255, 255, 255); stroke-opacity: 1; stroke-width: 1px;"/><path class="ygrid crisp" transform="translate(0,644.32)" d="M120,0h917" style="stroke: rgb(255, 255, 255); stroke-opacity: 1; stroke-width: 1px;"/><path class="ygrid crisp" transform="translate(0,296.85)" d="M120,0h917" style="stroke: rgb(255, 255, 255); stroke-opacity: 1; stroke-width: 1px;"/><path class="ygrid crisp" transform="translate(0,123.12)" d="M120,0h917" style="stroke: rgb(255, 255, 255); stroke-opacity: 1; stroke-width: 1px;"/></g></g><g class="zerolinelayer"><path class="xzl zl crisp" transform="translate(449.14,0)" d="M0,100v720" style="stroke: rgb(0, 0, 0); stroke-opacity: 1; stroke-width: 2px;"/><path class="yzl zl crisp" transform="translate(0,470.59)" d="M120,0h917" style="stroke: rgb(0, 0, 0); stroke-opacity: 1; stroke-width: 2px;"/></g><g class="layer-between"><g class="shapelayer"/><g class="imagelayer"/></g><path class="xlines-below"/><path class="ylines-below"/><g class="overlines-below"/><g class="xaxislayer-below"/><g class="yaxislayer-below"/><g class="overaxes-below"/><g class="plot" transform="translate(120,100)" clip-path="url(#clipb4498exyplot)"><g class="scatterlayer mlayer"><g class="trace scatter trace5bad23" style="stroke-miterlimit: 2; opacity: 1;"><g class="fills"/><g class="errorbars"/><g class="lines"/><g class="points"><path class="point plotly-customdata" transform="translate(849.27,630.16)" d="M17.5,0A17.5,17.5 0 1,1 0,-17.5A17.5,17.5 0 0,1 17.5,0Z" style="opacity: 0.7; stroke-width: 2px; fill: rgb(99, 110, 250); fill-opacity: 1; stroke: rgb(47, 79, 79); stroke-opacity: 1;"/><path class="point plotly-customdata" transform="translate(129.81,539.56)" d="M17.5,0A17.5,17.5 0 1,1 0,-17.5A17.5,17.5 0 0,1 17.5,0Z" style="opacity: 0.7; stroke-width: 2px; fill: rgb(99, 110, 250); fill-opacity: 1; stroke: rgb(47, 79, 79); stroke-opacity: 1;"/><path class="point plotly-customdata" transform="translate(369.53,159.49)" d="M17.5,0A17.5,17.5 0 1,1 0,-17.5A17.5,17.5 0 0,1 17.5,0Z" style="opacity: 0.7; stroke-width: 2px; fill: rgb(99, 110, 250); fill-opacity: 1; stroke: rgb(47, 79, 79); stroke-opacity: 1;"/><path class="point plotly-customdata" transform="translate(539.73,601.27)" d="M17.5,0A17.5,17.5 0 1,1 0,-17.5A17.5,17.5 0 0,1 17.5,0Z" style="opacity: 0.7; stroke-width: 2px; fill: rgb(99, 110, 250); fill-opacity: 1; stroke: rgb(47, 79, 79); stroke-opacity: 1;"/><path class="point plotly-customdata" transform="translate(337.43,303.85)" d="M17.5,0A17.5,17.5 0 1,1 0,-17.5A17.5,17.5 0 0,1 17.5,0Z" style="opacity: 0.7; stroke-width: 2px; fill: rgb(99, 110, 250); fill-opacity: 1; stroke: rgb(47, 79, 79); stroke-opacity: 1;"/><path class="point plotly-customdata" transform="translate(514.66,272.88)" d="M17.5,0A17.5,17.5 0 1,1 0,-17.5A17.5,17.5 0 0,1 17.5,0Z" style="opacity: 0.7; stroke-width: 2px; fill: rgb(99, 110, 250); fill-opacity: 1; stroke: rgb(47, 79, 79); stroke-opacity: 1;"/><path class="point plotly-customdata" transform="translate(560.52,307.63)" d="M17.5,0A17.5,17.5 0 1,1 0,-17.5A17.5,17.5 0 0,1 17.5,0Z" style="opacity: 0.7; stroke-width: 2px; fill: rgb(99, 110, 250); fill-opacity: 1; stroke: rgb(47, 79, 79); stroke-opacity: 1;"/><path class="point plotly-customdata" transform="translate(521.15,521.21)" d="M17.5,0A17.5,17.5 0 1,1 0,-17.5A17.5,17.5 0 0,1 17.5,0Z" style="opacity: 0.7; stroke-width: 2px; fill: rgb(99, 110, 250); fill-opacity: 1; stroke: rgb(47, 79, 79); stroke-opacity: 1;"/><path class="point plotly-customdata" transform="translate(400.22,557.3)" d="M17.5,0A17.5,17.5 0 1,1 0,-17.5A17.5,17.5 0 0,1 17.5,0Z" style="opacity: 0.7; stroke-width: 2px; fill: rgb(99, 110, 250); fill-opacity: 1; stroke: rgb(47, 79, 79); stroke-opacity: 1;"/><path class="point plotly-customdata" transform="translate(391.73,457)" d="M17.5,0A17.5,17.5 0 1,1 0,-17.5A17.5,17.5 0 0,1 17.5,0Z" style="opacity: 0.7; stroke-width: 2px; fill: rgb(99, 110, 250); fill-opacity: 1; stroke: rgb(47, 79, 79); stroke-opacity: 1;"/><path class="point plotly-customdata" transform="translate(501.8,409.38)" d="M17.5,0A17.5,17.5 0 1,1 0,-17.5A17.5,17.5 0 0,1 17.5,0Z" style="opacity: 0.7; stroke-width: 2px; fill: rgb(99, 110, 250); fill-opacity: 1; stroke: rgb(47, 79, 79); stroke-opacity: 1;"/></g><g class="text"/></g><g class="trace scatter trace15bead" style="stroke-miterlimit: 2; opacity: 1;"><g class="fills"/><g class="errorbars"/><g class="lines"/><g class="points"><path class="point plotly-customdata" transform="translate(162.76,106.67)" d="M22.75,0L0,22.75L-22.75,0L0,-22.75Z" style="opacity: 0.7; stroke-width: 2px; fill: rgb(99, 110, 250); fill-opacity: 1; stroke: rgb(47, 79, 79); stroke-opacity: 1;"/><path class="point plotly-customdata" transform="translate(347.2,393.2)" d="M22.75,0L0,22.75L-22.75,0L0,-22.75Z" style="opacity: 0.7; stroke-width: 2px; fill: rgb(99, 110, 250); fill-opacity: 1; stroke: rgb(47, 79, 79); stroke-opacity: 1;"/><path class="point plotly-customdata" transform="translate(356.72,325.64)" d="M22.75,0L0,22.75L-22.75,0L0,-22.75Z" style="opacity: 0.7; stroke-width: 2px; fill: rgb(99, 110, 250); fill-opacity: 1; stroke: rgb(47, 79, 79); stroke-opacity: 1;"/><path class="point plotly-customdata" transform="translate(250.71,348.35)" d="M22.75,0L0,22.75L-22.75,0L0,-22.75Z" style="opacity: 0.7; stroke-width: 2px; fill: rgb(99, 110, 250); fill-opacity: 1; stroke: rgb(47, 79, 79); stroke-opacity: 1;"/><path class="point plotly-customdata" transform="translate(187.55,231.47)" d="M22.75,0L0,22.75L-22.75,0L0,-22.75Z" style="opacity: 0.7; stroke-width: 2px; fill: rgb(99, 110, 250); fill-opacity: 1; stroke: rgb(47, 79, 79); stroke-opacity: 1;"/><path class="point plotly-customdata" transform="translate(221.4,259.11)" d="M22.75,0L0,22.75L-22.75,0L0,-22.75Z" style="opacity: 0.7; stroke-width: 2px; fill: rgb(99, 110, 250); fill-opacity: 1; stroke: rgb(47, 79, 79); stroke-opacity: 1;"/><path class="point plotly-customdata" transform="translate(376.53,180.9)" d="M22.75,0L0,22.75L-22.75,0L0,-22.75Z" style="opacity: 0.7; stroke-width: 2px; fill: rgb(99, 110, 250); fill-opacity: 1; stroke: rgb(47, 79, 79); stroke-opacity: 1;"/><path class="point plotly-customdata" transform="translate(261.78,57.88)" d="M22.75,0L0,22.75L-22.75,0L0,-22.75Z" style="opacity: 0.7; stroke-width: 2px; fill: rgb(99, 110, 250); fill-opacity: 1; stroke: rgb(47, 79, 79); stroke-opacity: 1;"/><path class="point plotly-customdata" transform="translate(250.52,249.05)" d="M22.75,0L0,22.75L-22.75,0L0,-22.75Z" style="opacity: 0.7; stroke-width: 2px; fill: rgb(99, 110, 250); fill-opacity: 1; stroke: rgb(47, 79, 79); stroke-opacity: 1;"/><path class="point plotly-customdata" transform="translate(276.05,316.4)" d="M22.75,0L0,22.75L-22.75,0L0,-22.75Z" style="opacity: 0.7; stroke-width: 2px; fill: rgb(99, 110, 250); fill-opacity: 1; stroke: rgb(47, 79, 79); stroke-opacity: 1;"/></g><g class="text"/></g><g class="trace scatter trace57c6f2" style="stroke-miterlimit: 2; opacity: 1;"><g class="fills"/><g class="errorbars"/><g class="lines"/><g class="points"><path class="point plotly-customdata" transform="translate(338.38,317.84)" d="M17.5,17.5H-17.5V-17.5H17.5Z" style="opacity: 0.7; stroke-width: 2px; fill: rgb(99, 110, 250); fill-opacity: 1; stroke: rgb(47, 79, 79); stroke-opacity: 1;"/><path class="point plotly-customdata" transform="translate(333.72,269.03)" d="M17.5,17.5H-17.5V-17.5H17.5Z" style="opacity: 0.7; stroke-width: 2px; fill: rgb(99, 110, 250); fill-opacity: 1; stroke: rgb(47, 79, 79); stroke-opacity: 1;"/><path class="point plotly-customdata" transform="translate(204.17,287.26)" d="M17.5,17.5H-17.5V-17.5H17.5Z" style="opacity: 0.7; stroke-width: 2px; fill: rgb(99, 110, 250); fill-opacity: 1; stroke: rgb(47, 79, 79); stroke-opacity: 1;"/><path class="point plotly-customdata" transform="translate(337.38,241.06)" d="M17.5,17.5H-17.5V-17.5H17.5Z" style="opacity: 0.7; stroke-width: 2px; fill: rgb(99, 110, 250); fill-opacity: 1; stroke: rgb(47, 79, 79); stroke-opacity: 1;"/><path class="point plotly-customdata" transform="translate(136.63,216.9)" d="M17.5,17.5H-17.5V-17.5H17.5Z" style="opacity: 0.7; stroke-width: 2px; fill: rgb(99, 110, 250); fill-opacity: 1; stroke: rgb(47, 79, 79); stroke-opacity: 1;"/><path class="point plotly-customdata" transform="translate(197.97,384.01)" d="M17.5,17.5H-17.5V-17.5H17.5Z" style="opacity: 0.7; stroke-width: 2px; fill: rgb(99, 110, 250); fill-opacity: 1; stroke: rgb(47, 79, 79); stroke-opacity: 1;"/><path class="point plotly-customdata" transform="translate(382.09,206.79)" d="M17.5,17.5H-17.5V-17.5H17.5Z" style="opacity: 0.7; stroke-width: 2px; fill: rgb(99, 110, 250); fill-opacity: 1; stroke: rgb(47, 79, 79); stroke-opacity: 1;"/><path class="point plotly-customdata" transform="translate(375.46,312.25)" d="M17.5,17.5H-17.5V-17.5H17.5Z" style="opacity: 0.7; stroke-width: 2px; fill: rgb(99, 110, 250); fill-opacity: 1; stroke: rgb(47, 79, 79); stroke-opacity: 1;"/><path class="point plotly-customdata" transform="translate(423.09,286.54)" d="M17.5,17.5H-17.5V-17.5H17.5Z" style="opacity: 0.7; stroke-width: 2px; fill: rgb(99, 110, 250); fill-opacity: 1; stroke: rgb(47, 79, 79); stroke-opacity: 1;"/><path class="point plotly-customdata" transform="translate(692.27,301.37)" d="M17.5,17.5H-17.5V-17.5H17.5Z" style="opacity: 0.7; stroke-width: 2px; fill: rgb(99, 110, 250); fill-opacity: 1; stroke: rgb(47, 79, 79); stroke-opacity: 1;"/></g><g class="text"/></g><g class="trace scatter traceb713c5" style="stroke-miterlimit: 2; opacity: 1;"><g class="fills"/><g class="errorbars"/><g class="lines"/><g class="points"><path class="point plotly-customdata" transform="translate(292.58,304.29)" d="M0,9.9l9.9,9.9l9.9,-9.9l-9.9,-9.9l9.9,-9.9l-9.9,-9.9l-9.9,9.9l-9.9,-9.9l-9.9,9.9l9.9,9.9l-9.9,9.9l9.9,9.9Z" style="opacity: 0.7; stroke-width: 2px; fill: rgb(99, 110, 250); fill-opacity: 1; stroke: rgb(47, 79, 79); stroke-opacity: 1;"/><path class="point plotly-customdata" transform="translate(230.39,184.58)" d="M0,9.9l9.9,9.9l9.9,-9.9l-9.9,-9.9l9.9,-9.9l-9.9,-9.9l-9.9,9.9l-9.9,-9.9l-9.9,9.9l9.9,9.9l-9.9,9.9l9.9,9.9Z" style="opacity: 0.7; stroke-width: 2px; fill: rgb(99, 110, 250); fill-opacity: 1; stroke: rgb(47, 79, 79); stroke-opacity: 1;"/><path class="point plotly-customdata" transform="translate(313.86,69.65)" d="M0,9.9l9.9,9.9l9.9,-9.9l-9.9,-9.9l9.9,-9.9l-9.9,-9.9l-9.9,9.9l-9.9,-9.9l-9.9,9.9l9.9,9.9l-9.9,9.9l9.9,9.9Z" style="opacity: 0.7; stroke-width: 2px; fill: rgb(99, 110, 250); fill-opacity: 1; stroke: rgb(47, 79, 79); stroke-opacity: 1;"/><path class="point plotly-customdata" transform="translate(187,291.03)" d="M0,9.9l9.9,9.9l9.9,-9.9l-9.9,-9.9l9.9,-9.9l-9.9,-9.9l-9.9,9.9l-9.9,-9.9l-9.9,9.9l9.9,9.9l-9.9,9.9l9.9,9.9Z" style="opacity: 0.7; stroke-width: 2px; fill: rgb(99, 110, 250); fill-opacity: 1; stroke: rgb(47, 79, 79); stroke-opacity: 1;"/><path class="point plotly-customdata" transform="translate(135.63,243.92)" d="M0,9.9l9.9,9.9l9.9,-9.9l-9.9,-9.9l9.9,-9.9l-9.9,-9.9l-9.9,9.9l-9.9,-9.9l-9.9,9.9l9.9,9.9l-9.9,9.9l9.9,9.9Z" style="opacity: 0.7; stroke-width: 2px; fill: rgb(99, 110, 250); fill-opacity: 1; stroke: rgb(47, 79, 79); stroke-opacity: 1;"/><path class="point plotly-customdata" transform="translate(255.55,222.1)" d="M0,9.9l9.9,9.9l9.9,-9.9l-9.9,-9.9l9.9,-9.9l-9.9,-9.9l-9.9,9.9l-9.9,-9.9l-9.9,9.9l9.9,9.9l-9.9,9.9l9.9,9.9Z" style="opacity: 0.7; stroke-width: 2px; fill: rgb(99, 110, 250); fill-opacity: 1; stroke: rgb(47, 79, 79); stroke-opacity: 1;"/><path class="point plotly-customdata" transform="translate(434.18,330.15)" d="M0,9.9l9.9,9.9l9.9,-9.9l-9.9,-9.9l9.9,-9.9l-9.9,-9.9l-9.9,9.9l-9.9,-9.9l-9.9,9.9l9.9,9.9l-9.9,9.9l9.9,9.9Z" style="opacity: 0.7; stroke-width: 2px; fill: rgb(99, 110, 250); fill-opacity: 1; stroke: rgb(47, 79, 79); stroke-opacity: 1;"/><path class="point plotly-customdata" transform="translate(401.3,174.35)" d="M0,9.9l9.9,9.9l9.9,-9.9l-9.9,-9.9l9.9,-9.9l-9.9,-9.9l-9.9,9.9l-9.9,-9.9l-9.9,9.9l9.9,9.9l-9.9,9.9l9.9,9.9Z" style="opacity: 0.7; stroke-width: 2px; fill: rgb(99, 110, 250); fill-opacity: 1; stroke: rgb(47, 79, 79); stroke-opacity: 1;"/><path class="point plotly-customdata" transform="translate(364.74,249.79)" d="M0,9.9l9.9,9.9l9.9,-9.9l-9.9,-9.9l9.9,-9.9l-9.9,-9.9l-9.9,9.9l-9.9,-9.9l-9.9,9.9l9.9,9.9l-9.9,9.9l9.9,9.9Z" style="opacity: 0.7; stroke-width: 2px; fill: rgb(99, 110, 250); fill-opacity: 1; stroke: rgb(47, 79, 79); stroke-opacity: 1;"/><path class="point plotly-customdata" transform="translate(627.73,399.86)" d="M0,9.9l9.9,9.9l9.9,-9.9l-9.9,-9.9l9.9,-9.9l-9.9,-9.9l-9.9,9.9l-9.9,-9.9l-9.9,9.9l9.9,9.9l-9.9,9.9l9.9,9.9Z" style="opacity: 0.7; stroke-width: 2px; fill: rgb(99, 110, 250); fill-opacity: 1; stroke: rgb(47, 79, 79); stroke-opacity: 1;"/><path class="point plotly-customdata" transform="translate(249.11,217.67)" d="M0,9.9l9.9,9.9l9.9,-9.9l-9.9,-9.9l9.9,-9.9l-9.9,-9.9l-9.9,9.9l-9.9,-9.9l-9.9,9.9l9.9,9.9l-9.9,9.9l9.9,9.9Z" style="opacity: 0.7; stroke-width: 2px; fill: rgb(99, 110, 250); fill-opacity: 1; stroke: rgb(47, 79, 79); stroke-opacity: 1;"/></g><g class="text"/></g><g class="trace scatter trace36c5f7" style="stroke-miterlimit: 2; opacity: 1;"><g class="fills"/><g class="errorbars"/><g class="lines"/><g class="points"><path class="point plotly-customdata" transform="translate(494.28,382.02)" d="M17.5,0A17.5,17.5 0 1,1 0,-17.5A17.5,17.5 0 0,1 17.5,0Z" style="opacity: 0.7; stroke-width: 2px; fill: rgb(239, 85, 59); fill-opacity: 1; stroke: rgb(47, 79, 79); stroke-opacity: 1;"/><path class="point plotly-customdata" transform="translate(299.53,333.65)" d="M17.5,0A17.5,17.5 0 1,1 0,-17.5A17.5,17.5 0 0,1 17.5,0Z" style="opacity: 0.7; stroke-width: 2px; fill: rgb(239, 85, 59); fill-opacity: 1; stroke: rgb(47, 79, 79); stroke-opacity: 1;"/><path class="point plotly-customdata" transform="translate(280.12,342.54)" d="M17.5,0A17.5,17.5 0 1,1 0,-17.5A17.5,17.5 0 0,1 17.5,0Z" style="opacity: 0.7; stroke-width: 2px; fill: rgb(239, 85, 59); fill-opacity: 1; stroke: rgb(47, 79, 79); stroke-opacity: 1;"/><path class="point plotly-customdata" transform="translate(748.39,509.58)" d="M17.5,0A17.5,17.5 0 1,1 0,-17.5A17.5,17.5 0 0,1 17.5,0Z" style="opacity: 0.7; stroke-width: 2px; fill: rgb(239, 85, 59); fill-opacity: 1; stroke: rgb(47, 79, 79); stroke-opacity: 1;"/><path class="point plotly-customdata" transform="translate(466.09,270.47)" d="M17.5,0A17.5,17.5 0 1,1 0,-17.5A17.5,17.5 0 0,1 17.5,0Z" style="opacity: 0.7; stroke-width: 2px; fill: rgb(239, 85, 59); fill-opacity: 1; stroke: rgb(47, 79, 79); stroke-opacity: 1;"/><path class="point plotly-customdata" transform="translate(358.84,463.81)" d="M17.5,0A17.5,17.5 0 1,1 0,-17.5A17.5,17.5 0 0,1 17.5,0Z" style="opacity: 0.7; stroke-width: 2px; fill: rgb(239, 85, 59); fill-opacity: 1; stroke: rgb(47, 79, 79); stroke-opacity: 1;"/><path class="point plotly-customdata" transform="translate(708.9,485.23)" d="M17.5,0A17.5,17.5 0 1,1 0,-17.5A17.5,17.5 0 0,1 17.5,0Z" style="opacity: 0.7; stroke-width: 2px; fill: rgb(239, 85, 59); fill-opacity: 1; stroke: rgb(47, 79, 79); stroke-opacity: 1;"/><path class="point plotly-customdata" transform="translate(428,395.81)" d="M17.5,0A17.5,17.5 0 1,1 0,-17.5A17.5,17.5 0 0,1 17.5,0Z" style="opacity: 0.7; stroke-width: 2px; fill: rgb(239, 85, 59); fill-opacity: 1; stroke: rgb(47, 79, 79); stroke-opacity: 1;"/><path class="point plotly-customdata" transform="translate(498.47,402.92)" d="M17.5,0A17.5,17.5 0 1,1 0,-17.5A17.5,17.5 0 0,1 17.5,0Z" style="opacity: 0.7; stroke-width: 2px; fill: rgb(239, 85, 59); fill-opacity: 1; stroke: rgb(47, 79, 79); stroke-opacity: 1;"/><path class="point plotly-customdata" transform="translate(532.01,342.33)" d="M17.5,0A17.5,17.5 0 1,1 0,-17.5A17.5,17.5 0 0,1 17.5,0Z" style="opacity: 0.7; stroke-width: 2px; fill: rgb(239, 85, 59); fill-opacity: 1; stroke: rgb(47, 79, 79); stroke-opacity: 1;"/></g><g class="text"/></g><g class="trace scatter trace09f99e" style="stroke-miterlimit: 2; opacity: 1;"><g class="fills"/><g class="errorbars"/><g class="lines"/><g class="points"><path class="point plotly-customdata" transform="translate(225.17,483.9)" d="M22.75,0L0,22.75L-22.75,0L0,-22.75Z" style="opacity: 0.7; stroke-width: 2px; fill: rgb(239, 85, 59); fill-opacity: 1; stroke: rgb(47, 79, 79); stroke-opacity: 1;"/><path class="point plotly-customdata" transform="translate(438.19,260.2)" d="M22.75,0L0,22.75L-22.75,0L0,-22.75Z" style="opacity: 0.7; stroke-width: 2px; fill: rgb(239, 85, 59); fill-opacity: 1; stroke: rgb(47, 79, 79); stroke-opacity: 1;"/><path class="point plotly-customdata" transform="translate(215.51,615.47)" d="M22.75,0L0,22.75L-22.75,0L0,-22.75Z" style="opacity: 0.7; stroke-width: 2px; fill: rgb(239, 85, 59); fill-opacity: 1; stroke: rgb(47, 79, 79); stroke-opacity: 1;"/><path class="point plotly-customdata" transform="translate(200.75,527.4)" d="M22.75,0L0,22.75L-22.75,0L0,-22.75Z" style="opacity: 0.7; stroke-width: 2px; fill: rgb(239, 85, 59); fill-opacity: 1; stroke: rgb(47, 79, 79); stroke-opacity: 1;"/><path class="point plotly-customdata" transform="translate(152.3,403.01)" d="M22.75,0L0,22.75L-22.75,0L0,-22.75Z" style="opacity: 0.7; stroke-width: 2px; fill: rgb(239, 85, 59); fill-opacity: 1; stroke: rgb(47, 79, 79); stroke-opacity: 1;"/><path class="point plotly-customdata" transform="translate(470.71,370.29)" d="M22.75,0L0,22.75L-22.75,0L0,-22.75Z" style="opacity: 0.7; stroke-width: 2px; fill: rgb(239, 85, 59); fill-opacity: 1; stroke: rgb(47, 79, 79); stroke-opacity: 1;"/><path class="point plotly-customdata" transform="translate(413.37,213.92)" d="M22.75,0L0,22.75L-22.75,0L0,-22.75Z" style="opacity: 0.7; stroke-width: 2px; fill: rgb(239, 85, 59); fill-opacity: 1; stroke: rgb(47, 79, 79); stroke-opacity: 1;"/><path class="point plotly-customdata" transform="translate(331.55,256.63)" d="M22.75,0L0,22.75L-22.75,0L0,-22.75Z" style="opacity: 0.7; stroke-width: 2px; fill: rgb(239, 85, 59); fill-opacity: 1; stroke: rgb(47, 79, 79); stroke-opacity: 1;"/><path class="point plotly-customdata" transform="translate(291.79,307.38)" d="M22.75,0L0,22.75L-22.75,0L0,-22.75Z" style="opacity: 0.7; stroke-width: 2px; fill: rgb(239, 85, 59); fill-opacity: 1; stroke: rgb(47, 79, 79); stroke-opacity: 1;"/><path class="point plotly-customdata" transform="translate(270.46,387.75)" d="M22.75,0L0,22.75L-22.75,0L0,-22.75Z" style="opacity: 0.7; stroke-width: 2px; fill: rgb(239, 85, 59); fill-opacity: 1; stroke: rgb(47, 79, 79); stroke-opacity: 1;"/></g><g class="text"/></g><g class="trace scatter trace22a94b" style="stroke-miterlimit: 2; opacity: 1;"><g class="fills"/><g class="errorbars"/><g class="lines"/><g class="points"><path class="point plotly-customdata" transform="translate(130.23,525.58)" d="M17.5,17.5H-17.5V-17.5H17.5Z" style="opacity: 0.7; stroke-width: 2px; fill: rgb(239, 85, 59); fill-opacity: 1; stroke: rgb(47, 79, 79); stroke-opacity: 1;"/><path class="point plotly-customdata" transform="translate(163.36,560.23)" d="M17.5,17.5H-17.5V-17.5H17.5Z" style="opacity: 0.7; stroke-width: 2px; fill: rgb(239, 85, 59); fill-opacity: 1; stroke: rgb(47, 79, 79); stroke-opacity: 1;"/><path class="point plotly-customdata" transform="translate(467.41,439.17)" d="M17.5,17.5H-17.5V-17.5H17.5Z" style="opacity: 0.7; stroke-width: 2px; fill: rgb(239, 85, 59); fill-opacity: 1; stroke: rgb(47, 79, 79); stroke-opacity: 1;"/><path class="point plotly-customdata" transform="translate(292.17,232.35)" d="M17.5,17.5H-17.5V-17.5H17.5Z" style="opacity: 0.7; stroke-width: 2px; fill: rgb(239, 85, 59); fill-opacity: 1; stroke: rgb(47, 79, 79); stroke-opacity: 1;"/><path class="point plotly-customdata" transform="translate(149.78,566.04)" d="M17.5,17.5H-17.5V-17.5H17.5Z" style="opacity: 0.7; stroke-width: 2px; fill: rgb(239, 85, 59); fill-opacity: 1; stroke: rgb(47, 79, 79); stroke-opacity: 1;"/><path class="point plotly-customdata" transform="translate(182,394.76)" d="M17.5,17.5H-17.5V-17.5H17.5Z" style="opacity: 0.7; stroke-width: 2px; fill: rgb(239, 85, 59); fill-opacity: 1; stroke: rgb(47, 79, 79); stroke-opacity: 1;"/><path class="point plotly-customdata" transform="translate(100.83,449.29)" d="M17.5,17.5H-17.5V-17.5H17.5Z" style="opacity: 0.7; stroke-width: 2px; fill: rgb(239, 85, 59); fill-opacity: 1; stroke: rgb(47, 79, 79); stroke-opacity: 1;"/><path class="point plotly-customdata" transform="translate(153.32,461.99)" d="M17.5,17.5H-17.5V-17.5H17.5Z" style="opacity: 0.7; stroke-width: 2px; fill: rgb(239, 85, 59); fill-opacity: 1; stroke: rgb(47, 79, 79); stroke-opacity: 1;"/><path class="point plotly-customdata" transform="translate(316.55,338.97)" d="M17.5,17.5H-17.5V-17.5H17.5Z" style="opacity: 0.7; stroke-width: 2px; fill: rgb(239, 85, 59); fill-opacity: 1; stroke: rgb(47, 79, 79); stroke-opacity: 1;"/></g><g class="text"/></g><g class="trace scatter tracefbe5f4" style="stroke-miterlimit: 2; opacity: 1;"><g class="fills"/><g class="errorbars"/><g class="lines"/><g class="points"><path class="point plotly-customdata" transform="translate(179.19,509.43)" d="M0,9.9l9.9,9.9l9.9,-9.9l-9.9,-9.9l9.9,-9.9l-9.9,-9.9l-9.9,9.9l-9.9,-9.9l-9.9,9.9l9.9,9.9l-9.9,9.9l9.9,9.9Z" style="opacity: 0.7; stroke-width: 2px; fill: rgb(239, 85, 59); fill-opacity: 1; stroke: rgb(47, 79, 79); stroke-opacity: 1;"/><path class="point plotly-customdata" transform="translate(196.14,532.66)" d="M0,9.9l9.9,9.9l9.9,-9.9l-9.9,-9.9l9.9,-9.9l-9.9,-9.9l-9.9,9.9l-9.9,-9.9l-9.9,9.9l9.9,9.9l-9.9,9.9l9.9,9.9Z" style="opacity: 0.7; stroke-width: 2px; fill: rgb(239, 85, 59); fill-opacity: 1; stroke: rgb(47, 79, 79); stroke-opacity: 1;"/><path class="point plotly-customdata" transform="translate(307.33,507.59)" d="M0,9.9l9.9,9.9l9.9,-9.9l-9.9,-9.9l9.9,-9.9l-9.9,-9.9l-9.9,9.9l-9.9,-9.9l-9.9,9.9l9.9,9.9l-9.9,9.9l9.9,9.9Z" style="opacity: 0.7; stroke-width: 2px; fill: rgb(239, 85, 59); fill-opacity: 1; stroke: rgb(47, 79, 79); stroke-opacity: 1;"/><path class="point plotly-customdata" transform="translate(152.57,619.01)" d="M0,9.9l9.9,9.9l9.9,-9.9l-9.9,-9.9l9.9,-9.9l-9.9,-9.9l-9.9,9.9l-9.9,-9.9l-9.9,9.9l9.9,9.9l-9.9,9.9l9.9,9.9Z" style="opacity: 0.7; stroke-width: 2px; fill: rgb(239, 85, 59); fill-opacity: 1; stroke: rgb(47, 79, 79); stroke-opacity: 1;"/><path class="point plotly-customdata" transform="translate(205.63,525.46)" d="M0,9.9l9.9,9.9l9.9,-9.9l-9.9,-9.9l9.9,-9.9l-9.9,-9.9l-9.9,9.9l-9.9,-9.9l-9.9,9.9l9.9,9.9l-9.9,9.9l9.9,9.9Z" style="opacity: 0.7; stroke-width: 2px; fill: rgb(239, 85, 59); fill-opacity: 1; stroke: rgb(47, 79, 79); stroke-opacity: 1;"/><path class="point plotly-customdata" transform="translate(262.29,485)" d="M0,9.9l9.9,9.9l9.9,-9.9l-9.9,-9.9l9.9,-9.9l-9.9,-9.9l-9.9,9.9l-9.9,-9.9l-9.9,9.9l9.9,9.9l-9.9,9.9l9.9,9.9Z" style="opacity: 0.7; stroke-width: 2px; fill: rgb(239, 85, 59); fill-opacity: 1; stroke: rgb(47, 79, 79); stroke-opacity: 1;"/><path class="point plotly-customdata" transform="translate(247.69,605.62)" d="M0,9.9l9.9,9.9l9.9,-9.9l-9.9,-9.9l9.9,-9.9l-9.9,-9.9l-9.9,9.9l-9.9,-9.9l-9.9,9.9l9.9,9.9l-9.9,9.9l9.9,9.9Z" style="opacity: 0.7; stroke-width: 2px; fill: rgb(239, 85, 59); fill-opacity: 1; stroke: rgb(47, 79, 79); stroke-opacity: 1;"/><path class="point plotly-customdata" transform="translate(264.98,662.13)" d="M0,9.9l9.9,9.9l9.9,-9.9l-9.9,-9.9l9.9,-9.9l-9.9,-9.9l-9.9,9.9l-9.9,-9.9l-9.9,9.9l9.9,9.9l-9.9,9.9l9.9,9.9Z" style="opacity: 0.7; stroke-width: 2px; fill: rgb(239, 85, 59); fill-opacity: 1; stroke: rgb(47, 79, 79); stroke-opacity: 1;"/><path class="point plotly-customdata" transform="translate(187.22,491.69)" d="M0,9.9l9.9,9.9l9.9,-9.9l-9.9,-9.9l9.9,-9.9l-9.9,-9.9l-9.9,9.9l-9.9,-9.9l-9.9,9.9l9.9,9.9l-9.9,9.9l9.9,9.9Z" style="opacity: 0.7; stroke-width: 2px; fill: rgb(239, 85, 59); fill-opacity: 1; stroke: rgb(47, 79, 79); stroke-opacity: 1;"/><path class="point plotly-customdata" transform="translate(156.84,617.32)" d="M0,9.9l9.9,9.9l9.9,-9.9l-9.9,-9.9l9.9,-9.9l-9.9,-9.9l-9.9,9.9l-9.9,-9.9l-9.9,9.9l9.9,9.9l-9.9,9.9l9.9,9.9Z" style="opacity: 0.7; stroke-width: 2px; fill: rgb(239, 85, 59); fill-opacity: 1; stroke: rgb(47, 79, 79); stroke-opacity: 1;"/></g><g class="text"/></g></g></g><g class="overplot"/><path class="xlines-above crisp" d="M118,821H1037" style="fill: none; stroke-width: 2px; stroke: rgb(0, 0, 0); stroke-opacity: 1;"/><path class="ylines-above crisp" d="M119,100V820" style="fill: none; stroke-width: 2px; stroke: rgb(0, 0, 0); stroke-opacity: 1;"/><g class="overlines-above"/><g class="xaxislayer-above"><g class="xtick"><text text-anchor="middle" x="0" y="847.2" transform="translate(213.55,0)" style="font-family: 'Open Sans', verdana, arial, sans-serif; font-size: 21px; fill: rgb(42, 63, 95); fill-opacity: 1; white-space: pre; opacity: 1;">−100k</text></g><g class="xtick"><text text-anchor="middle" x="0" y="847.2" style="font-family: 'Open Sans', verdana, arial, sans-serif; font-size: 21px; fill: rgb(42, 63, 95); fill-opacity: 1; white-space: pre; opacity: 1;" transform="translate(331.34000000000003,0)">−50k</text></g><g class="xtick"><text text-anchor="middle" x="0" y="847.2" style="font-family: 'Open Sans', verdana, arial, sans-serif; font-size: 21px; fill: rgb(42, 63, 95); fill-opacity: 1; white-space: pre; opacity: 1;" transform="translate(449.14,0)">0</text></g><g class="xtick"><text text-anchor="middle" x="0" y="847.2" style="font-family: 'Open Sans', verdana, arial, sans-serif; font-size: 21px; fill: rgb(42, 63, 95); fill-opacity: 1; white-space: pre; opacity: 1;" transform="translate(566.9300000000001,0)">50k</text></g><g class="xtick"><text text-anchor="middle" x="0" y="847.2" style="font-family: 'Open Sans', verdana, arial, sans-serif; font-size: 21px; fill: rgb(42, 63, 95); fill-opacity: 1; white-space: pre; opacity: 1;" transform="translate(684.73,0)">100k</text></g><g class="xtick"><text text-anchor="middle" x="0" y="847.2" style="font-family: 'Open Sans', verdana, arial, sans-serif; font-size: 21px; fill: rgb(42, 63, 95); fill-opacity: 1; white-space: pre; opacity: 1;" transform="translate(802.53,0)">150k</text></g><g class="xtick"><text text-anchor="middle" x="0" y="847.2" style="font-family: 'Open Sans', verdana, arial, sans-serif; font-size: 21px; fill: rgb(42, 63, 95); fill-opacity: 1; white-space: pre; opacity: 1;" transform="translate(920.32,0)">200k</text></g></g><g class="yaxislayer-above"><g class="ytick"><text text-anchor="end" x="113.8" y="7.35" transform="translate(0,818.05)" style="font-family: 'Open Sans', verdana, arial, sans-serif; font-size: 21px; fill: rgb(42, 63, 95); fill-opacity: 1; white-space: pre; opacity: 1;">−100k</text></g><g class="ytick"><text text-anchor="end" x="113.8" y="7.35" style="font-family: 'Open Sans', verdana, arial, sans-serif; font-size: 21px; fill: rgb(42, 63, 95); fill-opacity: 1; white-space: pre; opacity: 1;" transform="translate(0,644.32)">−50k</text></g><g class="ytick"><text text-anchor="end" x="113.8" y="7.35" style="font-family: 'Open Sans', verdana, arial, sans-serif; font-size: 21px; fill: rgb(42, 63, 95); fill-opacity: 1; white-space: pre; opacity: 1;" transform="translate(0,470.59)">0</text></g><g class="ytick"><text text-anchor="end" x="113.8" y="7.35" style="font-family: 'Open Sans', verdana, arial, sans-serif; font-size: 21px; fill: rgb(42, 63, 95); fill-opacity: 1; white-space: pre; opacity: 1;" transform="translate(0,296.85)">50k</text></g><g class="ytick"><text text-anchor="end" x="113.8" y="7.35" style="font-family: 'Open Sans', verdana, arial, sans-serif; font-size: 21px; fill: rgb(42, 63, 95); fill-opacity: 1; white-space: pre; opacity: 1;" transform="translate(0,123.12)">100k</text></g></g><g class="overaxes-above"/></g></g><g class="polarlayer"/><g class="smithlayer"/><g class="ternarylayer"/><g class="geolayer"/><g class="funnelarealayer"/><g class="pielayer"/><g class="iciclelayer"/><g class="treemaplayer"/><g class="sunburstlayer"/><g class="glimages"/><defs id="topdefs-b4498e"><g class="clips"/><clipPath id="legendb4498e"><rect width="233" height="285" x="0" y="0"/></clipPath></defs><g class="layer-above"><g class="imagelayer"/><g class="shapelayer"><g class="shape-group" data-index="0" clip-path="url(#clipb4498exy)"><path data-index="0" fill-rule="evenodd" d="M 627.76, 270.84000000000003L610.94, 257.21000000000004L593.56, 244.17L575.6800000000001, 231.77L557.38, 220.06L538.73, 209.09L519.81, 198.89L500.68, 189.53L481.44, 181.01999999999998L462.14, 173.41L442.89, 166.72L423.74, 160.99L404.79, 156.23L386.09, 152.47L367.74, 149.72L349.8, 147.99L332.35, 147.28L315.45, 147.61L299.18, 148.97L283.59000000000003, 151.35L268.76, 154.75L254.74, 159.14L241.6, 164.51999999999998L229.37, 170.86L218.11, 178.14L207.87, 186.32999999999998L198.69, 195.38L190.6, 205.28L183.64, 215.97L177.82999999999998, 227.42000000000002L173.2, 239.57L169.77, 252.39L167.55, 265.81L166.55, 279.78L166.77, 294.26L168.22, 309.16999999999996L170.88, 324.46000000000004L174.75, 340.07L179.81, 355.93L186.04000000000002, 371.99L193.42000000000002, 388.17L201.91, 404.41L211.48000000000002, 420.64L222.1, 436.81L233.70999999999998, 452.84L246.28, 468.68L259.76, 484.24L274.08000000000004, 499.49L289.19, 514.3399999999999L305.03, 528.75L321.53999999999996, 542.6600000000001L338.65, 556L356.28999999999996, 568.73L374.38, 580.79L392.87, 592.14L411.67, 602.72L430.7, 612.51L449.9, 621.45L469.18, 629.51L488.46, 636.66L507.67, 642.88L526.73, 648.12L545.5699999999999, 652.39L564.1, 655.64L582.25, 657.89L599.96, 659.11L617.14, 659.29L633.74, 658.45L649.67, 656.58L664.89, 653.69L679.32, 649.79L692.91, 644.9L705.6, 639.04L717.35, 632.22L728.11, 624.49L737.82, 615.86L746.46, 606.38L753.99, 596.0799999999999L760.38, 585.01L765.6, 573.2L769.63, 560.71L772.46, 547.5899999999999L774.07, 533.88L774.46, 519.65L773.63, 504.95L771.57, 489.84L768.3, 474.38L763.83, 458.64L758.19, 442.67L751.38, 426.55L743.44, 410.33L734.4, 394.08L724.3, 377.87L713.18, 361.76L701.08, 345.82L688.06, 330.12L674.15, 314.7L659.43, 299.64L643.94, 285L627.76, 270.84000000000003 Z" style="opacity: 1; stroke: rgb(99, 110, 250); stroke-opacity: 1; fill: rgb(0, 0, 0); fill-opacity: 0; stroke-width: 2px;"/></g><g class="shape-group" data-index="1" clip-path="url(#clipb4498exy)"><path data-index="1" fill-rule="evenodd" d="M 679.32, 352.71000000000004L668.01, 344.97L655.71, 338.02L642.5, 331.9L628.4100000000001, 326.63L613.51, 322.24L597.86, 318.73L581.51, 316.13L564.54, 314.43L547.01, 313.65999999999997L529, 313.82L510.57, 314.89L491.8, 316.89L472.76, 319.78999999999996L453.54, 323.6L434.21, 328.28999999999996L414.84, 333.84000000000003L395.52, 340.24L376.33, 347.45L357.33000000000004, 355.45L338.62, 364.2L320.25, 373.68L302.31, 383.83L284.87, 394.63L268, 406.03L251.76, 417.98L236.23000000000002, 430.43L221.45999999999998, 443.33L207.51999999999998, 456.64L194.45999999999998, 470.29L182.32999999999998, 484.24L171.18, 498.42L161.06, 512.78L152, 527.27L144.05, 541.8199999999999L137.24, 556.37L131.59, 570.87L127.12, 585.26L123.86, 599.48L121.82, 613.47L121, 627.17L121.41, 640.54L123.05, 653.52L125.91, 666.05L129.97, 678.08L135.23, 689.58L141.66, 700.48L149.24, 710.74L157.93, 720.34L167.7, 729.22L178.52, 737.34L190.32999999999998, 744.69L203.09, 751.23L216.74, 756.92L231.24, 761.76L246.53, 765.71L262.53999999999996, 768.77L279.2, 770.92L296.46000000000004, 772.15L314.25, 772.46L332.48, 771.84L351.09000000000003, 770.31L370, 767.85L389.14, 764.5L408.42, 760.25L427.78, 755.13L447.13, 749.15L466.4, 742.34L485.5, 734.73L504.37, 726.35L522.9200000000001, 717.23L541.0799999999999, 707.41L558.78, 696.93L575.95, 685.82L592.51, 674.15L608.4, 661.94L623.56, 649.26L637.92, 636.15L651.43, 622.66L664.03, 608.85L675.68, 594.78L686.32, 580.5L695.91, 566.0699999999999L704.42, 551.54L711.8, 536.99L718.04, 522.45L723.1, 508L726.96, 493.69L729.62, 479.58L731.05, 465.72L731.25, 452.18L730.23, 439L727.98, 426.24L724.52, 413.95L719.85, 402.18L714, 390.98L706.99, 380.39L698.86, 370.45L689.62, 361.21L679.32, 352.71000000000004 Z" style="opacity: 1; stroke: rgb(239, 85, 59); stroke-opacity: 1; fill: rgb(0, 0, 0); fill-opacity: 0; stroke-width: 2px;"/></g></g></g><g class="infolayer"><g class="legend" pointer-events="all" transform="translate(1055.3400000000001,100)"><rect class="bg" shape-rendering="crispEdges" width="233" height="285" x="0" y="0" style="stroke: rgb(68, 68, 68); stroke-opacity: 1; fill: rgb(0, 0, 0); fill-opacity: 0; stroke-width: 0px;"/><g class="scrollbox" transform="" clip-path="url(#legendb4498e)"><text class="legendtitletext" text-anchor="start" x="2" y="32.5" style="font-family: 'Open Sans', verdana, arial, sans-serif; font-size: 25px; fill: rgb(42, 63, 95); fill-opacity: 1; white-space: pre;">Group, Time point</text><g class="groups" transform=""><g class="traces" transform="translate(0,52.65)" style="opacity: 1;"><text class="legendtext" text-anchor="start" x="40" y="8.19" style="font-family: 'Open Sans', verdana, arial, sans-serif; font-size: 21px; fill: rgb(42, 63, 95); fill-opacity: 1; white-space: pre;">Group A, 1</text><g class="layers" style="opacity: 1;"><g class="legendfill"/><g class="legendlines"/><g class="legendsymbols"><g class="legendpoints"><path class="scatterpts" transform="translate(20,0)" d="M8,0A8,8 0 1,1 0,-8A8,8 0 0,1 8,0Z" style="opacity: 0.7; stroke-width: 2px; fill: rgb(99, 110, 250); fill-opacity: 1; stroke: rgb(47, 79, 79); stroke-opacity: 1;"/></g></g></g><rect class="legendtoggle" x="0" y="-15.15" width="154.515625" height="30.3" style="fill: rgb(0, 0, 0); fill-opacity: 0;"/></g></g><g class="groups" transform=""><g class="traces" transform="translate(0,82.95)" style="opacity: 1;"><text class="legendtext" text-anchor="start" x="40" y="8.19" style="font-family: 'Open Sans', verdana, arial, sans-serif; font-size: 21px; fill: rgb(42, 63, 95); fill-opacity: 1; white-space: pre;">Group A, 3</text><g class="layers" style="opacity: 1;"><g class="legendfill"/><g class="legendlines"/><g class="legendsymbols"><g class="legendpoints"><path class="scatterpts" transform="translate(20,0)" d="M10.4,0L0,10.4L-10.4,0L0,-10.4Z" style="opacity: 0.7; stroke-width: 2px; fill: rgb(99, 110, 250); fill-opacity: 1; stroke: rgb(47, 79, 79); stroke-opacity: 1;"/></g></g></g><rect class="legendtoggle" x="0" y="-15.15" width="154.515625" height="30.3" style="fill: rgb(0, 0, 0); fill-opacity: 0;"/></g></g><g class="groups" transform=""><g class="traces" transform="translate(0,113.25)" style="opacity: 1;"><text class="legendtext" text-anchor="start" x="40" y="8.19" style="font-family: 'Open Sans', verdana, arial, sans-serif; font-size: 21px; fill: rgb(42, 63, 95); fill-opacity: 1; white-space: pre;">Group A, 2</text><g class="layers" style="opacity: 1;"><g class="legendfill"/><g class="legendlines"/><g class="legendsymbols"><g class="legendpoints"><path class="scatterpts" transform="translate(20,0)" d="M8,8H-8V-8H8Z" style="opacity: 0.7; stroke-width: 2px; fill: rgb(99, 110, 250); fill-opacity: 1; stroke: rgb(47, 79, 79); stroke-opacity: 1;"/></g></g></g><rect class="legendtoggle" x="0" y="-15.15" width="154.515625" height="30.3" style="fill: rgb(0, 0, 0); fill-opacity: 0;"/></g></g><g class="groups" transform=""><g class="traces" transform="translate(0,143.55)" style="opacity: 1;"><text class="legendtext" text-anchor="start" x="40" y="8.19" style="font-family: 'Open Sans', verdana, arial, sans-serif; font-size: 21px; fill: rgb(42, 63, 95); fill-opacity: 1; white-space: pre;">Group A, 4</text><g class="layers" style="opacity: 1;"><g class="legendfill"/><g class="legendlines"/><g class="legendsymbols"><g class="legendpoints"><path class="scatterpts" transform="translate(20,0)" d="M0,4.53l4.53,4.53l4.53,-4.53l-4.53,-4.53l4.53,-4.53l-4.53,-4.53l-4.53,4.53l-4.53,-4.53l-4.53,4.53l4.53,4.53l-4.53,4.53l4.53,4.53Z" style="opacity: 0.7; stroke-width: 2px; fill: rgb(99, 110, 250); fill-opacity: 1; stroke: rgb(47, 79, 79); stroke-opacity: 1;"/></g></g></g><rect class="legendtoggle" x="0" y="-15.15" width="154.515625" height="30.3" style="fill: rgb(0, 0, 0); fill-opacity: 0;"/></g></g><g class="groups" transform=""><g class="traces" transform="translate(0,173.85)" style="opacity: 1;"><text class="legendtext" text-anchor="start" x="40" y="8.19" style="font-family: 'Open Sans', verdana, arial, sans-serif; font-size: 21px; fill: rgb(42, 63, 95); fill-opacity: 1; white-space: pre;">Group B, 1</text><g class="layers" style="opacity: 1;"><g class="legendfill"/><g class="legendlines"/><g class="legendsymbols"><g class="legendpoints"><path class="scatterpts" transform="translate(20,0)" d="M8,0A8,8 0 1,1 0,-8A8,8 0 0,1 8,0Z" style="opacity: 0.7; stroke-width: 2px; fill: rgb(239, 85, 59); fill-opacity: 1; stroke: rgb(47, 79, 79); stroke-opacity: 1;"/></g></g></g><rect class="legendtoggle" x="0" y="-15.15" width="154.515625" height="30.3" style="fill: rgb(0, 0, 0); fill-opacity: 0;"/></g></g><g class="groups" transform=""><g class="traces" transform="translate(0,204.15)" style="opacity: 1;"><text class="legendtext" text-anchor="start" x="40" y="8.19" style="font-family: 'Open Sans', verdana, arial, sans-serif; font-size: 21px; fill: rgb(42, 63, 95); fill-opacity: 1; white-space: pre;">Group B, 3</text><g class="layers" style="opacity: 1;"><g class="legendfill"/><g class="legendlines"/><g class="legendsymbols"><g class="legendpoints"><path class="scatterpts" transform="translate(20,0)" d="M10.4,0L0,10.4L-10.4,0L0,-10.4Z" style="opacity: 0.7; stroke-width: 2px; fill: rgb(239, 85, 59); fill-opacity: 1; stroke: rgb(47, 79, 79); stroke-opacity: 1;"/></g></g></g><rect class="legendtoggle" x="0" y="-15.15" width="154.515625" height="30.3" style="fill: rgb(0, 0, 0); fill-opacity: 0;"/></g></g><g class="groups" transform=""><g class="traces" transform="translate(0,234.45000000000002)" style="opacity: 1;"><text class="legendtext" text-anchor="start" x="40" y="8.19" style="font-family: 'Open Sans', verdana, arial, sans-serif; font-size: 21px; fill: rgb(42, 63, 95); fill-opacity: 1; white-space: pre;">Group B, 2</text><g class="layers" style="opacity: 1;"><g class="legendfill"/><g class="legendlines"/><g class="legendsymbols"><g class="legendpoints"><path class="scatterpts" transform="translate(20,0)" d="M8,8H-8V-8H8Z" style="opacity: 0.7; stroke-width: 2px; fill: rgb(239, 85, 59); fill-opacity: 1; stroke: rgb(47, 79, 79); stroke-opacity: 1;"/></g></g></g><rect class="legendtoggle" x="0" y="-15.15" width="154.515625" height="30.3" style="fill: rgb(0, 0, 0); fill-opacity: 0;"/></g></g><g class="groups" transform=""><g class="traces" transform="translate(0,264.75)" style="opacity: 1;"><text class="legendtext" text-anchor="start" x="40" y="8.19" style="font-family: 'Open Sans', verdana, arial, sans-serif; font-size: 21px; fill: rgb(42, 63, 95); fill-opacity: 1; white-space: pre;">Group B, 4</text><g class="layers" style="opacity: 1;"><g class="legendfill"/><g class="legendlines"/><g class="legendsymbols"><g class="legendpoints"><path class="scatterpts" transform="translate(20,0)" d="M0,4.53l4.53,4.53l4.53,-4.53l-4.53,-4.53l4.53,-4.53l-4.53,-4.53l-4.53,4.53l-4.53,-4.53l-4.53,4.53l4.53,4.53l-4.53,4.53l4.53,4.53Z" style="opacity: 0.7; stroke-width: 2px; fill: rgb(239, 85, 59); fill-opacity: 1; stroke: rgb(47, 79, 79); stroke-opacity: 1;"/></g></g></g><rect class="legendtoggle" x="0" y="-15.15" width="154.515625" height="30.3" style="fill: rgb(0, 0, 0); fill-opacity: 0;"/></g></g></g><rect class="scrollbar" rx="20" ry="3" width="0" height="0" x="0" y="0" style="fill: rgb(128, 139, 164); fill-opacity: 1;"/></g><g class="g-gtitle"><text class="gtitle" x="650" y="45" text-anchor="middle" dy="0.7em" style="font-family: 'Open Sans', verdana, arial, sans-serif; font-size: 29px; fill: rgb(42, 63, 95); opacity: 1; white-space: pre;"><tspan style="font-weight:bold">PCA Scores Plot<tspan style="font-weight:bold"> pareto scaling</tspan></tspan></text></g><g class="g-xtitle"><text class="xtitle" x="578.5" y="882.703125" text-anchor="middle" style="font-family: 'Open Sans', verdana, arial, sans-serif; font-size: 25px; fill: rgb(42, 63, 95); opacity: 1; white-space: pre;">PC1 R​<tspan style="font-size:70%" dy="-0.6em">2</tspan><tspan dy="0.42em">​</tspan>X: 30.62%</text></g><g class="g-ytitle" transform="translate(7.125,0)"><text class="ytitle" transform="rotate(-90,21.375,460)" x="21.375" y="460" text-anchor="middle" style="font-family: 'Open Sans', verdana, arial, sans-serif; font-size: 25px; fill: rgb(42, 63, 95); opacity: 1; white-space: pre;">PC3 R​<tspan style="font-size:70%" dy="-0.6em">2</tspan><tspan dy="0.42em">​</tspan>X: 11.67%</text></g><g class="annotation" data-index="0" style="opacity: 1;"><g class="annotation-text-g" transform="rotate(0,923,769)"><g class="cursor-pointer" transform="translate(809,754)"><rect class="bg" x="0.5" y="0.5" width="227" height="29" style="stroke-width: 1px; stroke: rgb(0, 0, 0); stroke-opacity: 0; fill: rgb(0, 0, 0); fill-opacity: 0;"/><text class="annotation-text" text-anchor="start" x="2" y="24.40625" style="font-family: 'Open Sans', verdana, arial, sans-serif; font-size: 20px; fill: rgb(0, 0, 0); fill-opacity: 1; white-space: pre;"><tspan style="font-weight:bold">R​<tspan style="font-size:70%" dy="-0.6em">2</tspan><tspan dy="0.42em">​</tspan>X (Cum): 67.05%<tspan style="font-weight:bold"></tspan></tspan></text></g></g></g><g class="annotation" data-index="1" style="opacity: 1;"><g class="annotation-text-g" transform="rotate(0,929.5,797.3)"><g class="cursor-pointer" transform="translate(822,782)"><rect class="bg" x="0.5" y="0.5" width="214" height="30" style="stroke-width: 1px; stroke: rgb(0, 0, 0); stroke-opacity: 0; fill: rgb(0, 0, 0); fill-opacity: 0;"/><text class="annotation-text" text-anchor="start" x="2" y="24.40625" style="font-family: 'Open Sans', verdana, arial, sans-serif; font-size: 20px; fill: rgb(0, 0, 0); fill-opacity: 1; white-space: pre;"><tspan style="font-weight:bold">Q​<tspan style="font-size:70%" dy="-0.6em">2</tspan><tspan dy="0.42em">​</tspan>X (Cum): 34.9%<tspan style="font-weight:bold"></tspan></tspan></text></g></g></g></g></svg>